<svg xmlns="http://www.w3.org/2000/svg" xmlns:xlink="http://www.w3.org/1999/xlink" width="200" zoomAndPan="magnify" viewBox="0 0 150 44.999999" height="60" preserveAspectRatio="xMidYMid meet" version="1.0"><defs><clipPath id="1ccf7250f6"><path d="M 0 18 L 12 18 L 12 33.300781 L 0 33.300781 Z M 0 18 " clip-rule="nonzero"/></clipPath><clipPath id="83265ed6e4"><path d="M 12 18 L 27 18 L 27 33.300781 L 12 33.300781 Z M 12 18 " clip-rule="nonzero"/></clipPath><clipPath id="d65e911460"><path d="M 55 11.550781 L 61 11.550781 L 61 17 L 55 17 Z M 55 11.550781 " clip-rule="nonzero"/></clipPath><clipPath id="2b1134f782"><path d="M 61 18 L 77 18 L 77 33.300781 L 61 33.300781 Z M 61 18 " clip-rule="nonzero"/></clipPath><clipPath id="7f761cc59a"><path d="M 76 18 L 91 18 L 91 33.300781 L 76 33.300781 Z M 76 18 " clip-rule="nonzero"/></clipPath><clipPath id="6b768d253c"><path d="M 108 18 L 126 18 L 126 33.300781 L 108 33.300781 Z M 108 18 " clip-rule="nonzero"/></clipPath></defs><path fill="#000000" d="M 36.109375 18.25 C 34.601562 18.25 33.132812 18.773438 31.972656 19.730469 L 31.972656 18.402344 L 28.207031 18.402344 L 28.207031 32.996094 L 32.128906 32.996094 L 32.128906 23.664062 C 32.980469 22.554688 34.292969 21.902344 35.695312 21.859375 C 36.222656 21.839844 36.769531 21.902344 37.273438 22.101562 L 37.273438 18.359375 C 36.878906 18.292969 36.484375 18.25 36.109375 18.25 " fill-opacity="1" fill-rule="evenodd"/><g clip-path="url(#1ccf7250f6)"><path fill="#000000" d="M 1.917969 28.539062 C 3.035156 29.472656 4.457031 29.996094 5.925781 29.972656 C 6.976562 29.972656 7.785156 29.453125 7.785156 28.734375 C 7.785156 26.558594 0.691406 27.339844 0.691406 22.644531 C 0.691406 19.835938 3.40625 18.097656 6.296875 18.097656 C 8.046875 18.097656 9.777344 18.621094 11.242188 19.578125 L 9.40625 22.40625 C 8.59375 21.796875 7.609375 21.449219 6.601562 21.402344 C 5.507812 21.402344 4.609375 21.816406 4.609375 22.578125 C 4.609375 24.46875 11.703125 23.730469 11.703125 28.777344 C 11.703125 31.582031 8.945312 33.28125 5.878906 33.28125 C 3.777344 33.28125 1.722656 32.582031 0.0117188 31.34375 Z M 1.917969 28.539062 " fill-opacity="1" fill-rule="evenodd"/></g><g clip-path="url(#83265ed6e4)"><path fill="#000000" d="M 26.523438 25.558594 C 26.523438 21.492188 23.65625 18.097656 19.605469 18.097656 C 15.269531 18.097656 12.492188 21.644531 12.492188 25.710938 C 12.316406 29.734375 15.46875 33.128906 19.496094 33.300781 C 19.714844 33.300781 19.933594 33.300781 20.152344 33.300781 C 22.429688 33.324219 24.617188 32.386719 26.152344 30.691406 L 23.917969 28.472656 C 22.976562 29.515625 21.640625 30.125 20.242188 30.148438 C 18.203125 30.210938 16.476562 28.691406 16.277344 26.6875 L 26.414062 26.6875 C 26.5 26.320312 26.523438 25.929688 26.523438 25.558594 Z M 16.476562 23.816406 C 16.761719 22.316406 18.074219 21.25 19.605469 21.25 C 21.074219 21.25 22.320312 22.359375 22.496094 23.816406 Z M 16.476562 23.816406 " fill-opacity="1" fill-rule="evenodd"/></g><path fill="#000000" d="M 46.597656 27.296875 L 50.601562 18.402344 L 54.675781 18.402344 L 47.953125 32.996094 L 45.238281 32.996094 L 38.519531 18.402344 L 42.589844 18.402344 Z M 46.597656 27.296875 " fill-opacity="1" fill-rule="evenodd"/><g clip-path="url(#d65e911460)"><path fill="#000000" d="M 57.980469 11.550781 C 59.382812 11.574219 60.476562 12.726562 60.453125 14.097656 C 60.433594 15.488281 59.273438 16.574219 57.890625 16.554688 C 56.511719 16.53125 55.417969 15.421875 55.417969 14.050781 C 55.417969 12.660156 56.535156 11.550781 57.9375 11.550781 C 57.9375 11.550781 57.957031 11.550781 57.980469 11.550781 " fill-opacity="1" fill-rule="evenodd"/></g><path fill="#000000" d="M 56.011719 18.402344 L 59.929688 18.402344 L 59.929688 32.996094 L 56.011719 32.996094 Z M 56.011719 18.402344 " fill-opacity="1" fill-rule="nonzero"/><g clip-path="url(#2b1134f782)"><path fill="#000000" d="M 76.148438 30.015625 C 74.640625 32.171875 72.144531 33.386719 69.515625 33.300781 C 65.292969 33.410156 61.789062 30.082031 61.679688 25.90625 C 61.570312 21.730469 64.917969 18.226562 69.121094 18.121094 C 69.253906 18.121094 69.40625 18.121094 69.539062 18.121094 C 71.925781 18.097656 74.199219 19.183594 75.691406 21.035156 L 72.910156 23.449219 C 72.121094 22.359375 70.875 21.730469 69.539062 21.707031 C 67.371094 21.707031 65.597656 23.449219 65.597656 25.601562 C 65.597656 25.644531 65.597656 25.667969 65.597656 25.710938 C 65.53125 27.84375 67.195312 29.605469 69.339844 29.691406 C 69.449219 29.691406 69.539062 29.691406 69.648438 29.691406 C 71.070312 29.667969 72.363281 28.949219 73.148438 27.777344 Z M 76.148438 30.015625 " fill-opacity="1" fill-rule="evenodd"/></g><g clip-path="url(#7f761cc59a)"><path fill="#000000" d="M 90.378906 30.667969 C 88.847656 32.367188 86.65625 33.324219 84.378906 33.28125 C 80.332031 33.476562 76.914062 30.363281 76.71875 26.339844 C 76.71875 26.125 76.71875 25.90625 76.71875 25.6875 C 76.71875 21.621094 79.5 18.074219 83.832031 18.074219 C 87.882812 18.074219 90.75 21.46875 90.75 25.535156 C 90.75 25.90625 90.726562 26.277344 90.664062 26.644531 L 80.527344 26.644531 C 80.722656 28.648438 82.453125 30.167969 84.488281 30.105469 C 85.890625 30.058594 87.226562 29.453125 88.167969 28.429688 Z M 86.746094 23.816406 C 86.570312 22.359375 85.320312 21.273438 83.855469 21.25 C 82.324219 21.25 81.007812 22.316406 80.722656 23.816406 Z M 86.746094 23.816406 " fill-opacity="1" fill-rule="evenodd"/></g><path fill="#000000" d="M 92.304688 32.996094 L 92.304688 18.402344 L 96.070312 18.402344 L 96.070312 19.578125 C 97.230469 18.621094 98.695312 18.097656 100.207031 18.097656 C 102.15625 18.097656 104.015625 18.945312 105.285156 20.445312 C 106.425781 21.902344 106.949219 23.730469 106.796875 25.558594 L 106.796875 32.976562 L 102.878906 32.976562 L 102.878906 25.253906 C 102.988281 24.253906 102.679688 23.273438 102.003906 22.511719 C 101.410156 21.96875 100.621094 21.664062 99.792969 21.707031 C 98.390625 21.75 97.078125 22.40625 96.222656 23.511719 L 96.222656 32.996094 Z M 92.304688 32.996094 " fill-opacity="1" fill-rule="evenodd"/><g clip-path="url(#6b768d253c)"><path fill="#62d84e" d="M 116.886719 18.097656 C 112.136719 18.097656 108.285156 21.902344 108.285156 26.601562 C 108.285156 28.949219 109.246094 31.214844 110.976562 32.824219 C 111.589844 33.386719 112.507812 33.453125 113.1875 32.929688 C 115.355469 31.320312 118.332031 31.320312 120.5 32.929688 C 121.179688 33.429688 122.121094 33.386719 122.710938 32.800781 C 126.148438 29.558594 126.300781 24.167969 123.039062 20.730469 C 121.417969 19.078125 119.207031 18.121094 116.886719 18.097656 M 116.84375 30.886719 C 114.546875 30.953125 112.640625 29.148438 112.574219 26.863281 C 112.574219 26.796875 112.574219 26.710938 112.574219 26.644531 C 112.574219 24.296875 114.480469 22.40625 116.84375 22.40625 C 119.207031 22.40625 121.113281 24.296875 121.113281 26.644531 C 121.179688 28.929688 119.363281 30.820312 117.0625 30.886719 C 116.976562 30.886719 116.910156 30.886719 116.84375 30.886719 " fill-opacity="1" fill-rule="evenodd"/></g><path fill="#000000" d="M 133.152344 32.996094 L 130.21875 32.996094 L 124.394531 18.402344 L 128.316406 18.402344 L 131.511719 26.734375 L 134.640625 18.402344 L 137.902344 18.402344 L 141.011719 26.734375 L 144.230469 18.402344 L 148.148438 18.402344 L 142.324219 32.996094 L 139.414062 32.996094 L 136.28125 24.6875 Z M 133.152344 32.996094 " fill-opacity="1" fill-rule="evenodd"/><path fill="#000000" d="M 148.191406 31.34375 L 147.863281 31.34375 L 147.863281 31.953125 L 147.578125 31.953125 L 147.578125 30.257812 L 148.257812 30.257812 C 148.5625 30.257812 148.804688 30.496094 148.804688 30.800781 C 148.804688 31.015625 148.671875 31.214844 148.476562 31.300781 L 148.871094 31.953125 L 148.5625 31.953125 Z M 147.863281 31.105469 L 148.277344 31.105469 C 148.433594 31.105469 148.5625 30.972656 148.5625 30.820312 C 148.5625 30.667969 148.433594 30.539062 148.277344 30.539062 L 147.886719 30.539062 Z M 147.863281 31.105469 " fill-opacity="1" fill-rule="nonzero"/><path fill="#000000" d="M 148.148438 29.582031 C 149.023438 29.582031 149.722656 30.277344 149.722656 31.148438 C 149.722656 32.019531 149.023438 32.714844 148.148438 32.714844 C 147.273438 32.714844 146.570312 32.019531 146.570312 31.148438 C 146.570312 30.277344 147.273438 29.582031 148.148438 29.582031 M 148.148438 29.320312 C 147.140625 29.320312 146.308594 30.125 146.308594 31.148438 C 146.308594 32.171875 147.117188 32.976562 148.148438 32.976562 C 149.15625 32.976562 149.988281 32.171875 149.988281 31.148438 C 149.984375 30.148438 149.15625 29.320312 148.148438 29.320312 Z M 148.148438 29.320312 " fill-opacity="1" fill-rule="nonzero"/></svg>