<svg xmlns="http://www.w3.org/2000/svg" xmlns:xlink="http://www.w3.org/1999/xlink" width="200" zoomAndPan="magnify" viewBox="0 0 150 44.999999" height="60" preserveAspectRatio="xMidYMid meet" version="1.0"><defs><clipPath id="d13fbbdc33"><path d="M 3 8.046875 L 30 8.046875 L 30 20 L 3 20 Z M 3 8.046875 " clip-rule="nonzero"/></clipPath><clipPath id="d634c89d25"><path d="M 0 10 L 10 10 L 10 37.296875 L 0 37.296875 Z M 0 10 " clip-rule="nonzero"/></clipPath><clipPath id="87cb6dd1a2"><path d="M 12 20 L 30 20 L 30 37.296875 L 12 37.296875 Z M 12 20 " clip-rule="nonzero"/></clipPath></defs><path fill="#000000" d="M 49.832031 15.4375 C 53.5625 15.4375 55.925781 17.511719 55.925781 20.757812 C 55.925781 24.160156 53.457031 26.285156 49.570312 26.285156 L 47.625 26.285156 L 47.625 30.007812 L 44.050781 30.007812 L 44.050781 15.4375 Z M 49.726562 23.097656 C 51.304688 23.097656 52.300781 22.191406 52.300781 20.757812 C 52.300781 19.425781 51.304688 18.628906 49.726562 18.628906 L 47.574219 18.628906 L 47.574219 23.097656 Z M 49.726562 23.097656 " fill-opacity="1" fill-rule="nonzero"/><path fill="#000000" d="M 62.230469 21.234375 L 68.589844 21.234375 L 68.589844 24.320312 L 62.230469 24.320312 L 62.230469 26.820312 L 69.535156 26.820312 L 69.535156 29.957031 L 58.660156 29.957031 L 58.660156 15.4375 L 69.535156 15.4375 L 69.535156 18.574219 L 62.230469 18.574219 Z M 62.230469 21.234375 " fill-opacity="1" fill-rule="nonzero"/><path fill="#000000" d="M 86.402344 29.957031 L 83.617188 29.957031 L 76.734375 21.980469 L 76.734375 29.957031 L 73.160156 29.957031 L 73.160156 15.4375 L 75.894531 15.4375 L 82.828125 23.628906 L 82.828125 15.4375 L 86.402344 15.4375 Z M 86.402344 29.957031 " fill-opacity="1" fill-rule="nonzero"/><path fill="#000000" d="M 97.804688 18.683594 L 97.804688 30.007812 L 94.230469 30.007812 L 94.230469 18.683594 L 89.660156 18.683594 L 89.660156 15.4375 L 102.375 15.4375 L 102.375 18.683594 Z M 97.804688 18.683594 " fill-opacity="1" fill-rule="nonzero"/><path fill="#000000" d="M 108.835938 21.234375 L 115.195312 21.234375 L 115.195312 24.320312 L 108.835938 24.320312 L 108.835938 26.820312 L 116.140625 26.820312 L 116.140625 29.957031 L 105.265625 29.957031 L 105.265625 15.4375 L 116.140625 15.4375 L 116.140625 18.574219 L 108.835938 18.574219 Z M 108.835938 21.234375 " fill-opacity="1" fill-rule="nonzero"/><path fill="#000000" d="M 123.390625 25.753906 L 123.390625 29.957031 L 119.820312 29.957031 L 119.820312 15.4375 L 126.125 15.4375 C 129.695312 15.4375 132.0625 17.40625 132.0625 20.542969 C 132.113281 22.457031 131.011719 24.210938 129.328125 25.0625 L 133.007812 29.957031 L 128.699219 29.957031 L 125.597656 25.753906 Z M 126.019531 22.511719 C 127.386719 22.511719 128.488281 21.765625 128.488281 20.542969 C 128.488281 19.375 127.386719 18.628906 126.019531 18.628906 L 123.390625 18.628906 L 123.390625 22.511719 Z M 126.019531 22.511719 " fill-opacity="1" fill-rule="nonzero"/><path fill="#000000" d="M 138.417969 27.457031 L 137.472656 29.957031 L 133.691406 29.957031 L 139.785156 15.332031 L 143.199219 15.332031 L 149.296875 29.957031 L 145.511719 29.957031 L 144.566406 27.457031 Z M 141.464844 19.585938 L 139.628906 24.425781 L 143.359375 24.425781 Z M 141.464844 19.585938 " fill-opacity="1" fill-rule="nonzero"/><g clip-path="url(#d13fbbdc33)"><path fill="#0024ff" d="M 23.71875 19.640625 L 29.65625 16.183594 L 29.65625 9.375 C 29.65625 8.628906 29.078125 8.046875 28.289062 8.046875 L 3.855469 8.046875 Z M 23.71875 19.640625 " fill-opacity="1" fill-rule="nonzero"/></g><path fill="#0024ff" d="M 20.09375 21.820312 L 12.683594 17.457031 L 12.683594 26.128906 Z M 20.09375 21.820312 " fill-opacity="1" fill-rule="nonzero"/><g clip-path="url(#d634c89d25)"><path fill="#0024ff" d="M 8.953125 15.332031 L 0.757812 10.546875 L 0.757812 35.964844 C 0.757812 36.710938 1.335938 37.296875 2.125 37.296875 L 9.007812 37.296875 L 9.007812 15.332031 Z M 8.953125 15.332031 " fill-opacity="1" fill-rule="nonzero"/></g><g clip-path="url(#87cb6dd1a2)"><path fill="#0024ff" d="M 12.632812 30.433594 L 12.632812 37.296875 L 28.289062 37.296875 C 29.023438 37.296875 29.65625 36.710938 29.65625 35.914062 L 29.65625 20.488281 Z M 12.632812 30.433594 " fill-opacity="1" fill-rule="nonzero"/></g></svg>