<svg xmlns="http://www.w3.org/2000/svg" xmlns:xlink="http://www.w3.org/1999/xlink" width="200" zoomAndPan="magnify" viewBox="0 0 150 44.999999" height="60" preserveAspectRatio="xMidYMid meet" version="1.0"><defs><clipPath id="9411f86aa4"><path d="M 0 4.320312 L 28 4.320312 L 28 36 L 0 36 Z M 0 4.320312 " clip-rule="nonzero"/></clipPath><clipPath id="2773914efd"><path d="M 44 4.320312 L 70 4.320312 L 70 37 L 44 37 Z M 44 4.320312 " clip-rule="nonzero"/></clipPath><clipPath id="69c170065c"><path d="M 69 4.320312 L 116 4.320312 L 116 29 L 69 29 Z M 69 4.320312 " clip-rule="nonzero"/></clipPath><clipPath id="e6f5081943"><path d="M 116 4.320312 L 125 4.320312 L 125 36 L 116 36 Z M 116 4.320312 " clip-rule="nonzero"/></clipPath><clipPath id="c8a75de089"><path d="M 72 28 L 112 28 L 112 40.320312 L 72 40.320312 Z M 72 28 " clip-rule="nonzero"/></clipPath></defs><g clip-path="url(#9411f86aa4)"><path fill="#054164" d="M 27.164062 12.300781 L 27.164062 4.375 L 0 4.375 L 0 12.300781 L 8.769531 12.300781 L 8.773438 35.53125 L 18.390625 35.53125 L 18.386719 12.300781 L 27.164062 12.300781 " fill-opacity="1" fill-rule="nonzero"/></g><path fill="#054164" d="M 35.152344 27.4375 C 35.007812 29.785156 33.464844 30.949219 31.488281 30.9375 C 29.910156 30.929688 28.777344 29.878906 28.78125 28.832031 C 28.789062 27.3125 29.800781 26.84375 31.738281 26.417969 C 32.921875 26.164062 34.109375 25.867188 35.164062 25.347656 Z M 43.476562 30.484375 L 43.527344 21.226562 C 43.554688 16.878906 43.667969 12.402344 32.785156 12.339844 C 27.382812 12.308594 21.320312 13.320312 21.023438 19.664062 L 29.097656 19.707031 C 29.144531 18.753906 29.683594 17.410156 32.359375 17.421875 C 33.765625 17.429688 35.207031 18.003906 35.199219 19.53125 C 35.191406 20.960938 34.003906 21.304688 32.816406 21.515625 C 28.382812 22.316406 19.953125 22.003906 19.910156 29.132812 C 19.886719 33.871094 23.515625 35.976562 27.902344 36.003906 C 30.714844 36.019531 33.394531 35.429688 35.246094 33.351562 L 35.335938 33.351562 C 35.289062 33.957031 35.414062 34.875 35.628906 35.484375 L 44.496094 35.535156 C 43.542969 34.09375 43.464844 32.179688 43.476562 30.484375 " fill-opacity="1" fill-rule="nonzero"/><g clip-path="url(#2773914efd)"><path fill="#054164" d="M 56.808594 29.910156 C 53.691406 29.894531 53.007812 26.976562 53.023438 24.28125 C 53.039062 21.628906 53.757812 18.722656 56.871094 18.742188 C 59.988281 18.753906 60.671875 21.675781 60.65625 24.324219 C 60.644531 27.019531 59.925781 29.925781 56.808594 29.910156 Z M 59.71875 12.496094 C 57.128906 12.480469 54.796875 13.597656 53.472656 15.503906 L 53.382812 15.503906 L 53.445312 4.324219 L 44.757812 4.324219 L 44.757812 35.53125 L 52.957031 35.53125 L 52.96875 33.101562 L 53.058594 33.101562 C 54.148438 34.542969 55.453125 36.160156 59.710938 36.183594 C 66.160156 36.222656 69.316406 29.9375 69.347656 24.289062 C 69.378906 18.984375 67.355469 12.539062 59.71875 12.496094 " fill-opacity="1" fill-rule="nonzero"/></g><g clip-path="url(#69c170065c)"><path fill="#054164" d="M 103.042969 21.808594 C 99.75 21.789062 99.332031 18.570312 99.347656 16.179688 C 99.359375 13.789062 99.816406 10.617188 103.109375 10.636719 C 106.398438 10.65625 106.816406 13.832031 106.804688 16.222656 C 106.792969 18.613281 106.332031 21.828125 103.042969 21.808594 Z M 81.476562 21.808594 C 78.183594 21.789062 77.765625 18.570312 77.777344 16.179688 C 77.792969 13.792969 78.25 10.621094 81.542969 10.640625 C 84.835938 10.65625 85.253906 13.832031 85.242188 16.222656 C 85.226562 18.613281 84.765625 21.828125 81.476562 21.808594 Z M 103.144531 4.378906 C 97.726562 4.347656 94.179688 6.558594 92.296875 9.769531 C 90.433594 6.601562 86.929688 4.410156 81.582031 4.378906 C 73.023438 4.328125 69.128906 9.867188 69.089844 16.128906 C 69.054688 22.386719 72.882812 28.015625 81.441406 28.066406 C 86.863281 28.09375 90.40625 25.867188 92.292969 22.640625 C 94.15625 25.820312 97.660156 28.035156 103.007812 28.066406 C 111.566406 28.113281 115.460938 22.53125 115.5 16.269531 C 115.53125 10.015625 111.703125 4.429688 103.144531 4.378906 " fill-opacity="1" fill-rule="nonzero"/></g><g clip-path="url(#e6f5081943)"><path fill="#054164" d="M 116.433594 35.53125 L 124.9375 35.53125 L 124.9375 4.378906 L 116.433594 4.378906 L 116.433594 35.53125 " fill-opacity="1" fill-rule="nonzero"/></g><path fill="#054164" d="M 140.765625 27.359375 C 140.621094 29.707031 139.078125 30.871094 137.101562 30.859375 C 135.523438 30.851562 134.390625 29.800781 134.398438 28.757812 C 134.40625 27.238281 135.414062 26.765625 137.351562 26.339844 C 138.535156 26.085938 139.722656 25.789062 140.78125 25.277344 Z M 149.144531 30.40625 L 149.144531 21.148438 C 149.171875 16.800781 149.28125 12.324219 138.398438 12.261719 C 133 12.230469 126.9375 13.238281 126.636719 19.585938 L 134.714844 19.628906 C 134.765625 18.671875 135.296875 17.328125 137.976562 17.34375 C 139.382812 17.351562 140.824219 17.925781 140.816406 19.445312 C 140.808594 20.878906 139.621094 21.222656 138.433594 21.433594 C 133.996094 22.234375 125.574219 21.921875 125.53125 29.050781 C 125.503906 33.789062 129.132812 35.894531 133.523438 35.921875 C 136.332031 35.9375 139.011719 35.34375 140.867188 33.269531 L 140.953125 33.269531 C 140.90625 33.878906 141.050781 34.917969 141.265625 35.527344 L 150 35.527344 C 149.039062 34.089844 149.136719 32.101562 149.144531 30.40625 " fill-opacity="1" fill-rule="nonzero"/><g clip-path="url(#c8a75de089)"><path fill="#054164" d="M 72.347656 28.070312 L 72.304688 35.589844 C 79.089844 38.757812 84.433594 40.265625 91.847656 40.308594 C 98.652344 40.347656 105.484375 38.679688 111.78125 35.589844 L 111.820312 28.070312 C 104.785156 30.722656 99.226562 32.09375 91.898438 32.050781 C 84.921875 32.011719 78.519531 30.796875 72.347656 28.070312 " fill-opacity="1" fill-rule="nonzero"/></g></svg>