<svg xmlns="http://www.w3.org/2000/svg" xmlns:xlink="http://www.w3.org/1999/xlink" width="200" zoomAndPan="magnify" viewBox="0 0 150 44.999999" height="60" preserveAspectRatio="xMidYMid meet" version="1.0"><defs><clipPath id="013cbe28b2"><path d="M 29 17 L 48 17 L 48 36.203125 L 29 36.203125 Z M 29 17 " clip-rule="nonzero"/></clipPath><clipPath id="35685d8447"><path d="M 65 8.453125 L 86 8.453125 L 86 36.203125 L 65 36.203125 Z M 65 8.453125 " clip-rule="nonzero"/></clipPath><clipPath id="2f59d99d74"><path d="M 102 16 L 120 16 L 120 36.203125 L 102 36.203125 Z M 102 16 " clip-rule="nonzero"/></clipPath><clipPath id="29d2a8a18f"><path d="M 123 8.453125 L 129 8.453125 L 129 36 L 123 36 Z M 123 8.453125 " clip-rule="nonzero"/></clipPath><clipPath id="337689dbbc"><path d="M 0 9 L 28 9 L 28 36.203125 L 0 36.203125 Z M 0 9 " clip-rule="nonzero"/></clipPath></defs><g clip-path="url(#013cbe28b2)"><path fill="#ee6513" d="M 29.773438 19.035156 C 29.773438 18.332031 29.960938 17.851562 30.375 17.554688 C 30.785156 17.261719 31.347656 17.113281 32.058594 17.113281 C 32.507812 17.113281 32.921875 17.148438 33.296875 17.261719 C 33.671875 17.371094 33.933594 17.445312 34.046875 17.484375 L 34.046875 27.140625 C 34.046875 28.804688 34.457031 30.0625 35.242188 30.949219 C 36.03125 31.800781 37.265625 32.246094 38.875 32.246094 C 40.523438 32.246094 41.722656 31.800781 42.507812 30.949219 C 43.296875 30.097656 43.707031 28.804688 43.707031 27.140625 L 43.707031 19.035156 C 43.707031 18.332031 43.894531 17.851562 44.308594 17.554688 C 44.71875 17.261719 45.242188 17.113281 45.957031 17.113281 C 46.441406 17.113281 46.855469 17.148438 47.226562 17.261719 C 47.601562 17.371094 47.863281 17.445312 47.976562 17.484375 L 47.976562 28.066406 C 47.976562 29.324219 47.753906 30.433594 47.339844 31.429688 C 46.890625 32.429688 46.292969 33.246094 45.46875 33.949219 C 44.644531 34.652344 43.707031 35.167969 42.585938 35.5 C 41.460938 35.871094 40.226562 36.019531 38.914062 36.019531 C 37.566406 36.019531 36.328125 35.835938 35.242188 35.5 C 34.121094 35.132812 33.183594 34.613281 32.359375 33.949219 C 31.574219 33.246094 30.9375 32.429688 30.488281 31.429688 C 30.039062 30.433594 29.8125 29.324219 29.8125 28.066406 L 29.8125 19.035156 Z M 29.773438 19.035156 " fill-opacity="1" fill-rule="evenodd"/></g><path fill="#ee6513" d="M 51.273438 13.820312 C 51.273438 13.117188 51.460938 12.636719 51.871094 12.339844 C 52.285156 12.042969 52.808594 11.894531 53.519531 11.894531 C 53.96875 11.894531 54.382812 11.933594 54.757812 12.042969 C 55.132812 12.15625 55.394531 12.230469 55.503906 12.265625 L 55.503906 17.074219 L 60.898438 17.074219 C 61.722656 17.074219 62.285156 17.222656 62.621094 17.554688 C 62.957031 17.890625 63.109375 18.371094 63.109375 19 C 63.109375 19.40625 63.035156 19.8125 62.921875 20.148438 C 62.808594 20.515625 62.695312 20.738281 62.621094 20.886719 L 55.46875 20.886719 L 55.46875 29.101562 C 55.46875 29.730469 55.542969 30.246094 55.730469 30.65625 C 55.917969 31.0625 56.140625 31.394531 56.441406 31.617188 C 56.742188 31.875 57.117188 32.023438 57.527344 32.132812 C 57.941406 32.246094 58.351562 32.28125 58.800781 32.28125 C 59.511719 32.28125 60.1875 32.171875 60.824219 31.949219 C 61.460938 31.726562 61.910156 31.503906 62.171875 31.320312 L 63.894531 34.09375 C 63.707031 34.242188 63.410156 34.429688 63.070312 34.652344 C 62.695312 34.871094 62.285156 35.09375 61.761719 35.28125 C 61.234375 35.464844 60.675781 35.648438 60 35.761719 C 59.363281 35.910156 58.652344 35.945312 57.863281 35.945312 C 55.691406 35.945312 54.046875 35.390625 52.921875 34.28125 C 51.796875 33.171875 51.234375 31.691406 51.234375 29.878906 L 51.234375 13.820312 Z M 51.273438 13.820312 " fill-opacity="1" fill-rule="evenodd"/><g clip-path="url(#35685d8447)"><path fill="#ee6513" d="M 75.65625 32.28125 C 76.480469 32.28125 77.265625 32.132812 77.976562 31.839844 C 78.6875 31.542969 79.289062 31.097656 79.8125 30.582031 C 80.335938 30.0625 80.710938 29.433594 80.972656 28.695312 C 81.234375 27.992188 81.386719 27.175781 81.386719 26.324219 C 81.386719 25.472656 81.234375 24.660156 80.972656 23.921875 C 80.710938 23.179688 80.300781 22.550781 79.8125 22.035156 C 79.289062 21.515625 78.6875 21.109375 77.976562 20.777344 C 77.265625 20.480469 76.480469 20.332031 75.65625 20.332031 C 74.792969 20.332031 74.007812 20.480469 73.296875 20.777344 C 72.585938 21.070312 71.984375 21.515625 71.5 22.035156 C 71.011719 22.589844 70.597656 23.21875 70.335938 23.957031 C 70.039062 24.699219 69.925781 25.472656 69.925781 26.324219 C 69.925781 27.214844 70.074219 28.027344 70.335938 28.765625 C 70.636719 29.507812 71.011719 30.136719 71.535156 30.65625 C 72.058594 31.171875 72.660156 31.578125 73.371094 31.875 C 74.007812 32.132812 74.792969 32.28125 75.65625 32.28125 Z M 65.65625 10.414062 C 65.65625 9.75 65.84375 9.269531 66.253906 8.933594 C 66.667969 8.601562 67.226562 8.453125 67.941406 8.453125 C 68.390625 8.453125 68.800781 8.492188 69.175781 8.601562 C 69.550781 8.714844 69.8125 8.789062 69.925781 8.824219 L 69.925781 19.371094 C 70.5625 18.59375 71.386719 17.925781 72.507812 17.371094 C 73.59375 16.816406 74.867188 16.558594 76.253906 16.558594 C 77.601562 16.558594 78.875 16.78125 80.039062 17.261719 C 81.199219 17.742188 82.210938 18.40625 83.035156 19.296875 C 83.894531 20.183594 84.570312 21.183594 85.054688 22.367188 C 85.542969 23.550781 85.769531 24.84375 85.769531 26.289062 C 85.769531 27.695312 85.503906 28.988281 85.019531 30.171875 C 84.53125 31.359375 83.820312 32.394531 82.921875 33.246094 C 82.023438 34.09375 80.972656 34.761719 79.738281 35.28125 C 78.5 35.761719 77.152344 36.019531 75.691406 36.019531 C 74.230469 36.019531 72.882812 35.796875 71.648438 35.355469 C 70.410156 34.910156 69.363281 34.242188 68.464844 33.355469 C 67.566406 32.46875 66.890625 31.359375 66.367188 30.0625 C 65.878906 28.730469 65.617188 27.175781 65.617188 25.402344 L 65.617188 10.414062 Z M 65.65625 10.414062 " fill-opacity="1" fill-rule="evenodd"/></g><path fill="#ee6513" d="M 88.238281 23.660156 C 88.238281 21.40625 88.953125 19.664062 90.335938 18.40625 C 91.722656 17.1875 93.671875 16.558594 96.140625 16.558594 C 97.714844 16.558594 98.988281 16.78125 99.960938 17.1875 C 100.9375 17.628906 101.421875 18.257812 101.421875 19.148438 C 101.421875 19.554688 101.3125 19.960938 101.085938 20.367188 C 100.863281 20.777344 100.675781 20.996094 100.523438 21.109375 C 100.113281 20.921875 99.589844 20.738281 98.953125 20.554688 C 98.316406 20.367188 97.640625 20.292969 96.816406 20.292969 C 93.933594 20.292969 92.472656 21.8125 92.472656 24.84375 L 92.472656 35.5 L 88.238281 35.5 Z M 88.238281 23.660156 " fill-opacity="1" fill-rule="evenodd"/><g clip-path="url(#2f59d99d74)"><path fill="#ee6513" d="M 115.582031 27.324219 C 115.316406 27.289062 114.867188 27.214844 114.195312 27.101562 C 113.519531 26.992188 112.472656 26.953125 111.125 26.953125 C 109.4375 26.953125 108.203125 27.214844 107.453125 27.695312 C 106.667969 28.210938 106.292969 28.988281 106.292969 30.0625 C 106.292969 30.507812 106.367188 30.914062 106.515625 31.285156 C 106.667969 31.652344 106.964844 31.949219 107.339844 32.207031 C 107.753906 32.46875 108.277344 32.652344 108.953125 32.800781 C 109.625 32.949219 110.488281 32.984375 111.5 32.984375 C 112.621094 32.984375 113.558594 32.949219 114.195312 32.835938 C 114.867188 32.761719 115.316406 32.691406 115.542969 32.652344 L 115.542969 27.324219 Z M 119.8125 35.464844 C 119.550781 35.5 119.175781 35.574219 118.652344 35.613281 C 118.128906 35.6875 117.492188 35.722656 116.777344 35.796875 C 116.066406 35.871094 115.242188 35.910156 114.34375 35.984375 C 113.445312 36.019531 112.507812 36.054688 111.574219 36.054688 C 109.625 36.054688 108.050781 35.871094 106.816406 35.574219 C 105.582031 35.242188 104.605469 34.796875 103.933594 34.242188 C 103.222656 33.6875 102.734375 33.058594 102.472656 32.320312 C 102.210938 31.617188 102.097656 30.839844 102.097656 30.097656 C 102.097656 29.101562 102.246094 28.210938 102.546875 27.472656 C 102.847656 26.695312 103.371094 26.066406 104.082031 25.546875 C 104.792969 25.03125 105.730469 24.660156 106.855469 24.402344 C 107.976562 24.140625 109.402344 24.03125 111.011719 24.03125 C 111.949219 24.03125 112.847656 24.070312 113.671875 24.140625 C 114.53125 24.214844 115.132812 24.253906 115.582031 24.289062 C 115.582031 23.441406 115.429688 22.738281 115.167969 22.144531 C 114.867188 21.589844 114.496094 21.144531 114.007812 20.8125 C 113.519531 20.480469 112.921875 20.257812 112.210938 20.148438 C 111.5 20.035156 110.75 19.960938 109.886719 19.960938 C 108.464844 19.960938 107.339844 20.109375 106.480469 20.441406 C 105.617188 20.777344 105.054688 21.035156 104.792969 21.257812 C 104.644531 21.144531 104.457031 20.886719 104.195312 20.554688 C 103.933594 20.21875 103.820312 19.777344 103.820312 19.296875 C 103.820312 18.960938 103.894531 18.628906 104.082031 18.296875 C 104.269531 17.964844 104.605469 17.667969 105.054688 17.410156 C 105.542969 17.148438 106.140625 16.964844 106.964844 16.816406 C 107.753906 16.667969 108.765625 16.59375 109.960938 16.59375 C 111.421875 16.59375 112.769531 16.742188 113.96875 17 C 115.167969 17.296875 116.21875 17.742188 117.078125 18.332031 C 117.941406 18.960938 118.613281 19.738281 119.101562 20.777344 C 119.589844 21.773438 119.8125 22.996094 119.8125 24.402344 Z M 119.8125 35.464844 " fill-opacity="1" fill-rule="evenodd"/></g><g clip-path="url(#29d2a8a18f)"><path fill="#ee6513" d="M 123.59375 19.035156 C 123.59375 18.332031 123.78125 17.851562 124.195312 17.554688 C 124.605469 17.261719 125.167969 17.113281 125.878906 17.113281 C 126.328125 17.113281 126.742188 17.148438 127.117188 17.261719 C 127.492188 17.371094 127.753906 17.445312 127.863281 17.484375 L 127.863281 35.539062 L 123.632812 35.539062 L 123.632812 19.035156 Z M 125.730469 8.824219 C 126.441406 8.824219 127.042969 9.082031 127.566406 9.566406 C 128.050781 10.046875 128.316406 10.636719 128.316406 11.378906 C 128.316406 12.082031 128.050781 12.671875 127.566406 13.191406 C 127.078125 13.671875 126.480469 13.929688 125.730469 13.929688 C 125.019531 13.929688 124.417969 13.671875 123.894531 13.191406 C 123.40625 12.710938 123.144531 12.117188 123.144531 11.378906 C 123.144531 10.675781 123.40625 10.082031 123.894531 9.566406 C 124.382812 9.082031 124.980469 8.824219 125.730469 8.824219 Z M 125.730469 8.824219 " fill-opacity="1" fill-rule="evenodd"/></g><path fill="#ee6513" d="M 131.648438 24.402344 C 131.648438 23.179688 131.871094 22.070312 132.320312 21.109375 C 132.769531 20.148438 133.40625 19.332031 134.230469 18.628906 C 135.054688 17.964844 135.992188 17.445312 137.117188 17.074219 C 138.203125 16.707031 139.4375 16.558594 140.75 16.558594 C 142.058594 16.558594 143.296875 16.742188 144.382812 17.074219 C 145.503906 17.445312 146.441406 17.925781 147.265625 18.628906 C 148.089844 19.296875 148.6875 20.109375 149.136719 21.109375 C 149.589844 22.070312 149.8125 23.179688 149.8125 24.402344 L 149.8125 35.539062 L 145.542969 35.539062 L 145.542969 25.472656 C 145.542969 23.808594 145.132812 22.550781 144.308594 21.664062 C 143.484375 20.777344 142.285156 20.367188 140.710938 20.367188 C 139.101562 20.367188 137.902344 20.8125 137.078125 21.664062 C 136.253906 22.515625 135.878906 23.808594 135.878906 25.472656 L 135.878906 35.539062 L 131.648438 35.539062 Z M 131.648438 24.402344 " fill-opacity="1" fill-rule="evenodd"/><g clip-path="url(#337689dbbc)"><path fill="#ee6513" d="M 20.1875 31.839844 C 19.402344 32.617188 18.425781 33.246094 17.378906 33.6875 C 16.292969 34.132812 15.132812 34.355469 13.859375 34.355469 C 12.585938 34.355469 11.421875 34.132812 10.335938 33.6875 C 9.25 33.246094 8.316406 32.652344 7.492188 31.839844 C 6.703125 31.0625 6.066406 30.136719 5.617188 29.0625 C 5.167969 28.027344 4.945312 26.917969 4.945312 25.734375 L 7.078125 25.734375 C 7.117188 26.105469 7.191406 26.4375 7.304688 26.769531 C 7.453125 27.140625 7.714844 27.472656 7.976562 27.769531 C 8.277344 28.066406 8.613281 28.285156 8.988281 28.433594 C 9.363281 28.582031 9.8125 28.695312 10.261719 28.695312 C 10.710938 28.695312 11.160156 28.621094 11.535156 28.433594 C 11.910156 28.285156 12.285156 28.066406 12.546875 27.769531 C 12.847656 27.472656 13.070312 27.140625 13.222656 26.769531 C 13.332031 26.511719 13.410156 26.25 13.445312 25.957031 L 14.121094 25.957031 C 14.15625 26.25 14.230469 26.511719 14.34375 26.769531 C 14.496094 27.140625 14.757812 27.472656 15.019531 27.769531 C 15.320312 28.066406 15.65625 28.285156 16.03125 28.433594 C 16.40625 28.582031 16.855469 28.695312 17.304688 28.695312 C 17.753906 28.695312 18.203125 28.621094 18.578125 28.433594 C 18.953125 28.285156 19.324219 28.066406 19.589844 27.769531 C 19.886719 27.472656 20.113281 27.140625 20.261719 26.769531 C 20.410156 26.4375 20.488281 26.105469 20.488281 25.734375 L 22.621094 25.734375 C 22.621094 26.917969 22.398438 28.027344 21.949219 29.0625 C 21.609375 30.136719 21.011719 31.0625 20.1875 31.839844 M 12.210938 25.546875 C 12.210938 25.808594 12.171875 26.066406 12.058594 26.289062 C 11.949219 26.511719 11.835938 26.695312 11.648438 26.878906 C 11.460938 27.066406 11.273438 27.175781 11.046875 27.289062 C 10.824219 27.398438 10.5625 27.433594 10.300781 27.433594 C 10.039062 27.433594 9.773438 27.398438 9.550781 27.289062 C 9.324219 27.175781 9.101562 27.066406 8.953125 26.878906 C 8.765625 26.695312 8.652344 26.511719 8.539062 26.289062 C 8.425781 26.066406 8.390625 25.808594 8.390625 25.546875 C 8.390625 25.289062 8.425781 25.03125 8.539062 24.808594 C 8.652344 24.585938 8.765625 24.402344 8.953125 24.214844 C 9.140625 24.03125 9.324219 23.921875 9.550781 23.808594 C 9.773438 23.699219 10.039062 23.660156 10.300781 23.660156 C 10.5625 23.660156 10.824219 23.699219 11.046875 23.808594 C 11.273438 23.921875 11.5 24.03125 11.648438 24.214844 C 11.835938 24.402344 11.949219 24.585938 12.058594 24.808594 C 12.171875 25.03125 12.210938 25.289062 12.210938 25.546875 M 19.324219 25.546875 C 19.324219 25.808594 19.289062 26.066406 19.175781 26.289062 C 19.0625 26.511719 18.953125 26.695312 18.765625 26.878906 C 18.578125 27.066406 18.390625 27.175781 18.164062 27.289062 C 17.941406 27.398438 17.679688 27.433594 17.414062 27.433594 C 17.152344 27.433594 16.890625 27.398438 16.667969 27.289062 C 16.441406 27.175781 16.21875 27.066406 16.066406 26.878906 C 15.878906 26.695312 15.769531 26.511719 15.65625 26.289062 C 15.542969 26.066406 15.503906 25.808594 15.503906 25.546875 C 15.503906 25.289062 15.542969 25.03125 15.65625 24.808594 C 15.769531 24.585938 15.878906 24.402344 16.066406 24.214844 C 16.253906 24.03125 16.441406 23.921875 16.667969 23.808594 C 16.890625 23.699219 17.152344 23.660156 17.414062 23.660156 C 17.679688 23.660156 17.941406 23.699219 18.164062 23.808594 C 18.390625 23.921875 18.613281 24.03125 18.765625 24.214844 C 18.953125 24.402344 19.0625 24.585938 19.175781 24.808594 C 19.25 25.03125 19.324219 25.289062 19.324219 25.546875 M 5.730469 21.960938 C 7.265625 21.480469 9.25 20.847656 9.25 20.847656 C 13.671875 19.445312 14.269531 17.816406 14.269531 17.816406 C 14.269531 17.816406 15.207031 19.445312 18.425781 20.554688 C 18.425781 20.554688 20.1875 21.144531 21.871094 21.738281 C 21.949219 21.886719 22.058594 22.070312 22.097656 22.21875 C 22.398438 22.882812 22.585938 23.625 22.695312 24.363281 L 20.410156 24.363281 L 20.410156 24.328125 C 20.261719 23.957031 20 23.625 19.738281 23.328125 C 19.4375 23.03125 19.101562 22.808594 18.726562 22.664062 C 18.351562 22.515625 17.902344 22.441406 17.453125 22.441406 C 17.003906 22.441406 16.554688 22.515625 16.179688 22.664062 C 15.804688 22.808594 15.429688 23.03125 15.167969 23.328125 C 14.867188 23.625 14.644531 23.957031 14.496094 24.328125 C 14.457031 24.4375 14.382812 24.585938 14.34375 24.699219 L 13.484375 24.699219 C 13.445312 24.585938 13.410156 24.4375 13.332031 24.328125 C 13.183594 23.957031 12.921875 23.625 12.660156 23.328125 C 12.359375 23.03125 12.023438 22.808594 11.648438 22.664062 C 11.234375 22.515625 10.824219 22.441406 10.375 22.441406 C 9.925781 22.441406 9.476562 22.515625 9.101562 22.664062 C 8.726562 22.808594 8.351562 23.03125 8.089844 23.328125 C 7.789062 23.625 7.566406 23.957031 7.414062 24.328125 C 7.414062 24.328125 7.414062 24.363281 7.414062 24.363281 L 5.132812 24.363281 C 5.242188 23.625 5.429688 22.921875 5.730469 22.21875 C 5.65625 22.109375 5.691406 22.035156 5.730469 21.960938 M 26.40625 17.667969 C 25.691406 16.039062 24.757812 14.632812 23.519531 13.449219 C 22.320312 12.265625 20.863281 11.339844 19.214844 10.675781 C 17.566406 10.007812 15.769531 9.675781 13.820312 9.675781 C 11.871094 9.675781 10.113281 10.007812 8.464844 10.675781 C 6.816406 11.339844 5.394531 12.265625 4.15625 13.488281 C 2.921875 14.671875 1.984375 16.078125 1.273438 17.703125 C 0.5625 19.296875 0.226562 21.035156 0.226562 22.921875 C 0.226562 24.808594 0.5625 26.546875 1.273438 28.175781 C 1.984375 29.804688 2.921875 31.210938 4.15625 32.394531 C 5.394531 33.578125 6.816406 34.503906 8.464844 35.207031 C 10.113281 35.871094 11.910156 36.203125 13.859375 36.203125 C 15.804688 36.203125 17.566406 35.871094 19.25 35.207031 C 20.898438 34.539062 22.320312 33.613281 23.558594 32.394531 C 24.792969 31.210938 25.730469 29.804688 26.441406 28.175781 C 27.117188 26.546875 27.492188 24.808594 27.492188 22.921875 C 27.453125 21.035156 27.117188 19.296875 26.40625 17.667969 " fill-opacity="1" fill-rule="evenodd"/></g></svg>