<svg xmlns="http://www.w3.org/2000/svg" xmlns:xlink="http://www.w3.org/1999/xlink" width="200" zoomAndPan="magnify" viewBox="0 0 150 44.999999" height="60" preserveAspectRatio="xMidYMid meet" version="1.0"><defs><clipPath id="620981fee3"><path d="M 49.433594 37 L 58 37 L 58 45 L 49.433594 45 Z M 49.433594 37 " clip-rule="nonzero"/></clipPath><clipPath id="3c1da1c063"><path d="M 93 37 L 100.433594 37 L 100.433594 45 L 93 45 Z M 93 37 " clip-rule="nonzero"/></clipPath></defs><path fill="#2a52a6" d="M 74.933594 20.039062 C 74.289062 20.039062 73.78125 20.71875 73.78125 21.582031 L 73.78125 26.421875 C 73.78125 27.289062 74.289062 27.96875 74.933594 27.96875 C 75.582031 27.96875 76.089844 27.289062 76.089844 26.421875 L 76.089844 21.582031 C 76.089844 20.71875 75.582031 20.039062 74.933594 20.039062 " fill-opacity="1" fill-rule="nonzero"/><path fill="#e22133" d="M 74.933594 0 C 74.289062 0 73.78125 0.6875 73.78125 1.566406 L 73.78125 6.492188 C 73.78125 7.371094 74.289062 8.058594 74.933594 8.058594 C 75.582031 8.058594 76.089844 7.371094 76.089844 6.492188 L 76.089844 1.566406 C 76.089844 0.6875 75.582031 0 74.933594 0 " fill-opacity="1" fill-rule="nonzero"/><path fill="#9cd63b" d="M 67.324219 12.828125 L 62.476562 12.828125 C 61.609375 12.828125 60.933594 13.335938 60.933594 13.984375 C 60.933594 14.632812 61.609375 15.136719 62.476562 15.136719 L 67.324219 15.136719 C 68.191406 15.136719 68.871094 14.632812 68.871094 13.984375 C 68.871094 13.335938 68.191406 12.828125 67.324219 12.828125 " fill-opacity="1" fill-rule="nonzero"/><path fill="#2ea04a" d="M 87.367188 12.828125 L 82.4375 12.828125 C 81.558594 12.828125 80.871094 13.335938 80.871094 13.984375 C 80.871094 14.632812 81.558594 15.136719 82.4375 15.136719 L 87.367188 15.136719 C 88.246094 15.136719 88.933594 14.632812 88.933594 13.984375 C 88.933594 13.335938 88.246094 12.828125 87.367188 12.828125 " fill-opacity="1" fill-rule="nonzero"/><path fill="#44b5d0" d="M 70.734375 18.265625 C 70.296875 17.824219 69.414062 17.957031 68.824219 18.539062 L 65.398438 21.964844 C 65.050781 22.308594 64.84375 22.757812 64.847656 23.164062 C 64.847656 23.449219 64.941406 23.691406 65.121094 23.875 C 65.304688 24.054688 65.546875 24.148438 65.828125 24.148438 C 66.234375 24.148438 66.683594 23.941406 67.03125 23.597656 L 70.457031 20.175781 C 70.804688 19.828125 71.011719 19.378906 71.007812 18.972656 C 71.007812 18.691406 70.914062 18.445312 70.734375 18.265625 " fill-opacity="1" fill-rule="nonzero"/><path fill="#39b587" d="M 84.921875 4.09375 C 84.480469 3.660156 83.59375 3.792969 83 4.386719 L 79.511719 7.867188 C 79.15625 8.222656 78.945312 8.679688 78.945312 9.089844 C 78.945312 9.371094 79.039062 9.613281 79.21875 9.792969 C 79.398438 9.972656 79.640625 10.066406 79.921875 10.066406 C 80.332031 10.066406 80.789062 9.855469 81.144531 9.503906 L 84.628906 6.019531 C 84.984375 5.667969 85.195312 5.210938 85.195312 4.800781 C 85.195312 4.519531 85.101562 4.273438 84.921875 4.09375 " fill-opacity="1" fill-rule="nonzero"/><path fill="#f9d018" d="M 70.457031 7.792969 L 67.03125 4.371094 C 66.441406 3.785156 65.5625 3.65625 65.121094 4.09375 C 64.941406 4.277344 64.84375 4.519531 64.84375 4.804688 C 64.84375 5.210938 65.050781 5.660156 65.398438 6.003906 L 68.824219 9.429688 C 69.171875 9.773438 69.621094 9.980469 70.027344 9.980469 C 70.308594 9.980469 70.554688 9.882812 70.734375 9.703125 C 70.914062 9.523438 71.007812 9.277344 71.007812 8.996094 C 71.011719 8.589844 70.804688 8.140625 70.457031 7.792969 " fill-opacity="1" fill-rule="nonzero"/><path fill="#f89b20" d="M 84.628906 21.949219 L 81.144531 18.464844 C 80.550781 17.875 79.660156 17.734375 79.21875 18.175781 C 79.039062 18.355469 78.945312 18.597656 78.945312 18.878906 C 78.945312 19.289062 79.15625 19.746094 79.511719 20.097656 L 82.996094 23.582031 C 83.351562 23.933594 83.808594 24.144531 84.21875 24.144531 C 84.5 24.144531 84.742188 24.050781 84.921875 23.871094 C 85.101562 23.695312 85.195312 23.449219 85.195312 23.167969 C 85.195312 22.757812 84.984375 22.300781 84.628906 21.949219 " fill-opacity="1" fill-rule="nonzero"/><g clip-path="url(#620981fee3)"><path fill="#1a181a" d="M 54.585938 40.945312 C 54.585938 40.945312 55.628906 43.574219 55.867188 44.195312 C 56.105469 44.792969 56.050781 44.890625 55.183594 44.890625 C 54.183594 44.890625 54.152344 44.859375 53.890625 44.195312 C 53.644531 43.542969 52.882812 41.609375 52.882812 41.609375 L 51.851562 41.609375 L 51.3125 44.195312 C 51.160156 44.890625 51.160156 44.890625 50.257812 44.890625 C 49.390625 44.890625 49.359375 44.847656 49.5 44.195312 L 50.8125 37.976562 C 50.953125 37.28125 50.953125 37.28125 51.863281 37.28125 C 52.730469 37.28125 52.765625 37.3125 52.625 37.976562 L 52.167969 40.117188 L 53.132812 40.117188 C 53.132812 40.117188 54.421875 38.433594 54.78125 37.976562 C 55.324219 37.28125 55.34375 37.28125 56.386719 37.28125 C 57.308594 37.28125 57.363281 37.433594 56.929688 37.988281 C 56.527344 38.488281 54.585938 40.945312 54.585938 40.945312 " fill-opacity="1" fill-rule="nonzero"/></g><path fill="#1a181a" d="M 62.4375 41.824219 L 62.394531 38.453125 L 61.984375 38.453125 L 60.488281 41.824219 Z M 59.933594 43.164062 C 59.847656 43.378906 59.542969 44 59.457031 44.195312 C 59.140625 44.871094 59.128906 44.890625 58.261719 44.890625 C 57.242188 44.890625 57.222656 44.824219 57.515625 44.195312 C 57.960938 43.21875 60.085938 38.652344 60.398438 37.976562 C 60.703125 37.3125 60.757812 37.28125 61.710938 37.28125 C 61.917969 37.28125 62.773438 37.28125 63.046875 37.28125 C 63.957031 37.28125 64.03125 37.3125 64.042969 37.964844 C 64.066406 38.683594 64.207031 43.121094 64.226562 44.195312 C 64.226562 44.871094 64.207031 44.890625 63.347656 44.890625 C 62.480469 44.890625 62.472656 44.859375 62.460938 44.195312 C 62.460938 44.042969 62.425781 43.378906 62.425781 43.164062 L 59.933594 43.164062 " fill-opacity="1" fill-rule="nonzero"/><path fill="#1a181a" d="M 69.835938 44.890625 L 66.625 44.890625 C 65.757812 44.890625 65.726562 44.847656 65.867188 44.195312 L 67.179688 37.976562 C 67.320312 37.28125 67.320312 37.28125 68.230469 37.28125 C 69.097656 37.28125 69.128906 37.3125 68.988281 37.976562 L 67.839844 43.390625 L 70.140625 43.390625 C 71.039062 43.390625 71.070312 43.433594 70.917969 44.140625 C 70.769531 44.890625 70.769531 44.890625 69.835938 44.890625 " fill-opacity="1" fill-rule="nonzero"/><path fill="#1a181a" d="M 76.789062 38.769531 L 75.582031 38.769531 L 74.433594 44.195312 C 74.292969 44.890625 74.292969 44.890625 73.382812 44.890625 C 72.515625 44.890625 72.480469 44.847656 72.621094 44.195312 L 73.773438 38.769531 L 72.570312 38.769531 C 71.679688 38.769531 71.636719 38.726562 71.789062 38.019531 C 71.949219 37.28125 71.949219 37.28125 72.882812 37.28125 L 77.113281 37.28125 C 78 37.28125 78.035156 37.3125 77.882812 38.019531 C 77.71875 38.769531 77.71875 38.769531 76.789062 38.769531 " fill-opacity="1" fill-rule="nonzero"/><path fill="#1a181a" d="M 84.738281 41.164062 C 84.074219 44.261719 83.207031 45 80.855469 45 C 78.5 45 77.914062 44.28125 78.589844 41.164062 L 79.261719 37.976562 C 79.414062 37.28125 79.414062 37.28125 80.324219 37.28125 C 81.179688 37.28125 81.222656 37.3125 81.082031 37.976562 L 80.398438 41.164062 C 79.964844 43.140625 80.019531 43.5 81.167969 43.5 C 82.339844 43.5 82.492188 43.128906 82.925781 41.164062 L 83.597656 37.976562 C 83.75 37.28125 83.75 37.28125 84.660156 37.28125 C 85.519531 37.28125 85.5625 37.3125 85.421875 37.976562 L 84.738281 41.164062 " fill-opacity="1" fill-rule="nonzero"/><path fill="#1a181a" d="M 90.28125 38.605469 L 88.914062 38.605469 L 88.457031 40.738281 L 89.910156 40.738281 C 90.648438 40.738281 90.941406 40.5 91.113281 39.671875 C 91.289062 38.835938 91.070312 38.605469 90.28125 38.605469 Z M 92.15625 44.195312 C 92.382812 44.835938 92.339844 44.890625 91.429688 44.890625 C 90.496094 44.890625 90.484375 44.878906 90.28125 44.195312 C 90.171875 43.816406 89.671875 42.511719 89.554688 42.074219 L 88.175781 42.074219 L 87.730469 44.195312 C 87.578125 44.890625 87.578125 44.890625 86.667969 44.890625 C 85.8125 44.890625 85.777344 44.847656 85.910156 44.195312 L 87.230469 37.976562 C 87.382812 37.28125 87.382812 37.28125 88.285156 37.28125 L 90.734375 37.28125 C 92.761719 37.28125 93.359375 38.007812 93.011719 39.671875 C 92.761719 40.859375 92.265625 41.53125 91.277344 41.824219 C 91.527344 42.542969 91.992188 43.738281 92.15625 44.195312 " fill-opacity="1" fill-rule="nonzero"/><g clip-path="url(#3c1da1c063)"><path fill="#1a181a" d="M 98.640625 41.824219 L 98.597656 38.453125 L 98.1875 38.453125 L 96.691406 41.824219 Z M 96.136719 43.164062 C 96.050781 43.378906 95.746094 44 95.660156 44.195312 C 95.34375 44.871094 95.335938 44.890625 94.464844 44.890625 C 93.445312 44.890625 93.425781 44.824219 93.71875 44.195312 C 94.164062 43.21875 96.289062 38.652344 96.601562 37.976562 C 96.90625 37.3125 96.960938 37.28125 97.914062 37.28125 C 98.121094 37.28125 98.976562 37.28125 99.25 37.28125 C 100.160156 37.28125 100.234375 37.3125 100.246094 37.964844 C 100.269531 38.683594 100.410156 43.121094 100.429688 44.195312 C 100.429688 44.871094 100.410156 44.890625 99.554688 44.890625 C 98.683594 44.890625 98.675781 44.859375 98.664062 44.195312 C 98.664062 44.042969 98.628906 43.378906 98.628906 43.164062 L 96.136719 43.164062 " fill-opacity="1" fill-rule="nonzero"/></g><path fill="#4a4d50" d="M 73.035156 13.847656 C 73.035156 14.898438 73.886719 15.75 74.933594 15.75 C 75.984375 15.75 76.832031 14.898438 76.832031 13.847656 C 76.832031 12.792969 75.984375 11.941406 74.933594 11.941406 C 73.886719 11.941406 73.035156 12.792969 73.035156 13.847656 " fill-opacity="1" fill-rule="nonzero"/></svg>