<svg xmlns="http://www.w3.org/2000/svg" xmlns:xlink="http://www.w3.org/1999/xlink" width="200" zoomAndPan="magnify" viewBox="0 0 150 44.999999" height="60" preserveAspectRatio="xMidYMid meet" version="1.0"><defs><clipPath id="d16d718686"><path d="M 52.5 0 L 97.5 0 L 97.5 45 L 52.5 45 Z M 52.5 0 " clip-rule="nonzero"/></clipPath></defs><g clip-path="url(#d16d718686)"><path fill="#024ad8" d="M 75.0625 0 L 70.222656 13.574219 L 73.511719 13.574219 C 75.882812 13.574219 76.890625 15.445312 76.144531 17.539062 L 71.332031 31.035156 L 66.488281 31.035156 L 71.785156 16.183594 L 69.289062 16.183594 L 63.996094 31.035156 L 59.109375 31.035156 L 69.976562 0.5625 C 59.96875 2.847656 52.5 11.800781 52.5 22.5 C 52.5 33.03125 59.738281 41.871094 69.507812 44.324219 L 80.488281 13.496094 L 88.4375 13.496094 C 90.082031 13.496094 92.152344 14.605469 91.257812 17.128906 L 86.792969 29.734375 C 86.222656 31.34375 84.867188 31.671875 83.789062 31.671875 L 78.898438 31.671875 L 74.160156 44.980469 C 74.4375 44.992188 74.71875 45 75 45 C 87.425781 45 97.5 34.925781 97.5 22.5 C 97.5 10.09375 87.460938 0.0351562 75.0625 0 Z M 84.429688 16.148438 L 79.816406 29.089844 L 82.273438 29.089844 L 86.886719 16.148438 Z M 84.429688 16.148438 " fill-opacity="1" fill-rule="nonzero"/></g></svg>