<svg xmlns="http://www.w3.org/2000/svg" xmlns:xlink="http://www.w3.org/1999/xlink" width="200" zoomAndPan="magnify" viewBox="0 0 150 44.999999" height="60" preserveAspectRatio="xMidYMid meet" version="1.0"><defs><clipPath id="4e1821cafd"><path d="M 0 8.121094 L 150 8.121094 L 150 36.621094 L 0 36.621094 Z M 0 8.121094 " clip-rule="nonzero"/></clipPath></defs><g clip-path="url(#4e1821cafd)"><path fill="#f34d2d" d="M 95.0625 15.316406 C 95.648438 15.316406 96.144531 15.351562 96.570312 15.441406 L 96.570312 20.136719 C 95.949219 20.015625 95.21875 19.925781 94.476562 19.925781 C 90.996094 19.925781 88.777344 22.035156 88.777344 25.378906 L 88.777344 36.113281 L 83.792969 36.113281 L 83.792969 15.722656 L 88.777344 15.722656 L 88.777344 18.746094 C 89.789062 16.617188 92.097656 15.316406 95.0625 15.316406 Z M 75.503906 15.722656 L 80.527344 15.722656 L 80.527344 36.113281 L 75.503906 36.113281 L 75.503906 33.15625 C 74.796875 35.144531 72.242188 36.550781 68.761719 36.550781 C 65.78125 36.550781 63.261719 35.546875 61.222656 33.527344 C 59.214844 31.46875 58.203125 28.953125 58.203125 25.925781 C 58.203125 22.898438 59.214844 20.382812 61.222656 18.359375 C 63.28125 16.285156 65.78125 15.28125 68.761719 15.28125 C 72.242188 15.28125 74.796875 16.707031 75.503906 18.675781 Z M 75.894531 25.90625 C 75.894531 24.128906 75.273438 22.636719 74.015625 21.457031 C 72.789062 20.277344 71.246094 19.679688 69.453125 19.679688 C 67.664062 19.679688 66.191406 20.277344 64.964844 21.457031 C 63.792969 22.636719 63.207031 24.128906 63.207031 25.90625 C 63.207031 27.683594 63.792969 29.179688 64.964844 30.359375 C 66.191406 31.539062 67.644531 32.136719 69.453125 32.136719 C 71.265625 32.136719 72.808594 31.539062 74.015625 30.359375 C 75.257812 29.199219 75.894531 27.703125 75.894531 25.90625 Z M 110.625 15.316406 C 107.605469 15.316406 105.210938 16.652344 104.21875 18.640625 L 104.21875 15.722656 L 99.230469 15.722656 L 99.230469 36.113281 L 104.21875 36.113281 L 104.21875 24.375 C 104.21875 21.578125 106.277344 19.644531 109.113281 19.644531 C 111.917969 19.644531 113.605469 21.386719 113.605469 24.183594 L 113.605469 36.113281 L 118.625 36.113281 L 118.625 23.496094 C 118.625 18.429688 115.664062 15.316406 110.625 15.316406 Z M 144.5 15.722656 L 139.566406 22.265625 L 134.632812 15.722656 L 129.148438 15.722656 L 136.832031 25.890625 L 129.148438 36.113281 L 134.5625 36.113281 L 139.566406 29.496094 L 144.570312 36.113281 L 149.980469 36.113281 L 142.296875 25.890625 L 149.980469 15.722656 Z M 121.570312 12.992188 L 126.59375 12.992188 L 126.59375 8.136719 L 121.570312 8.136719 Z M 121.570312 36.113281 L 126.59375 36.113281 L 126.59375 15.722656 L 121.570312 15.722656 Z M 34.886719 25.941406 C 34.886719 22.707031 35.933594 20.121094 37.992188 18.148438 C 40.070312 16.160156 42.695312 15.191406 45.925781 15.191406 C 48.976562 15.191406 51.496094 16.160156 53.414062 18.148438 C 55.382812 20.121094 56.339844 22.546875 56.339844 25.449219 C 56.339844 26.046875 56.304688 26.628906 56.253906 27.140625 L 39.855469 27.140625 C 40.015625 30.375 42.5 32.46875 46.207031 32.46875 C 48.390625 32.46875 50.273438 31.695312 51.90625 30.128906 L 54.921875 32.960938 C 52.542969 35.390625 49.617188 36.605469 46.046875 36.605469 C 42.75 36.605469 40.015625 35.636719 37.976562 33.738281 C 35.917969 31.835938 34.871094 29.304688 34.871094 26.101562 Z M 51.230469 23.480469 C 51.230469 22.425781 50.644531 21.351562 49.597656 20.613281 C 48.550781 19.835938 47.34375 19.449219 45.871094 19.449219 C 44.328125 19.449219 42.941406 19.835938 41.808594 20.578125 C 40.671875 21.316406 40.085938 22.390625 39.960938 23.480469 Z M 2.253906 25.765625 C 2.855469 25.765625 3.425781 25.539062 3.851562 25.132812 L 11.996094 17.285156 C 12.421875 16.882812 12.652344 16.320312 12.652344 15.738281 C 12.652344 15.15625 12.421875 14.613281 11.996094 14.191406 C 11.570312 13.785156 11.003906 13.558594 10.398438 13.558594 C 9.796875 13.558594 9.226562 13.785156 8.800781 14.191406 L 0.65625 22.035156 C 0.230469 22.460938 0 23.003906 0 23.585938 C 0 24.164062 0.230469 24.710938 0.65625 25.132812 C 1.082031 25.554688 1.648438 25.765625 2.253906 25.765625 Z M 12.671875 26.558594 C 12.671875 25.976562 12.4375 25.433594 12.011719 25.011719 C 11.585938 24.605469 11.019531 24.375 10.417969 24.375 C 9.8125 24.375 9.246094 24.605469 8.820312 25.011719 L 0.675781 32.855469 C -0.214844 33.703125 -0.214844 35.089844 0.675781 35.953125 C 1.101562 36.359375 1.667969 36.585938 2.269531 36.585938 C 2.875 36.585938 3.441406 36.359375 3.867188 35.953125 L 12.011719 28.105469 C 12.4375 27.683594 12.671875 27.140625 12.671875 26.558594 Z M 28.816406 19.609375 L 24.808594 15.738281 L 28.816406 11.867188 C 29.242188 11.464844 29.476562 10.902344 29.476562 10.320312 C 29.476562 9.738281 29.242188 9.195312 28.816406 8.773438 C 27.929688 7.925781 26.492188 7.925781 25.605469 8.773438 L 21.597656 12.640625 L 17.585938 8.773438 C 17.160156 8.347656 16.589844 8.136719 15.988281 8.136719 C 15.386719 8.136719 14.816406 8.367188 14.390625 8.773438 C 13.964844 9.175781 13.734375 9.738281 13.734375 10.320312 C 13.734375 10.902344 13.964844 11.445312 14.390625 11.867188 L 18.402344 15.738281 L 14.390625 19.609375 C 13.503906 20.453125 13.503906 21.84375 14.390625 22.707031 C 14.816406 23.109375 15.386719 23.339844 15.988281 23.339844 C 16.589844 23.339844 17.160156 23.109375 17.585938 22.707031 L 21.597656 18.835938 L 25.605469 22.707031 C 26.492188 23.550781 27.914062 23.550781 28.816406 22.707031 C 29.242188 22.300781 29.476562 21.738281 29.476562 21.15625 C 29.476562 20.558594 29.242188 20.015625 28.816406 19.609375 Z M 23.210938 25.011719 C 22.324219 24.164062 20.886719 24.164062 20 25.011719 L 11.855469 32.855469 C 10.964844 33.703125 10.964844 35.089844 11.855469 35.953125 C 12.28125 36.359375 12.847656 36.585938 13.449219 36.585938 C 14.054688 36.585938 14.621094 36.359375 15.046875 35.953125 L 23.191406 28.105469 C 24.097656 27.246094 24.097656 25.871094 23.210938 25.011719 Z M 23.210938 25.011719 " fill-opacity="1" fill-rule="nonzero"/></g></svg>