<svg xmlns="http://www.w3.org/2000/svg" xmlns:xlink="http://www.w3.org/1999/xlink" width="200" zoomAndPan="magnify" viewBox="0 0 150 44.999999" height="60" preserveAspectRatio="xMidYMid meet" version="1.0"><defs><clipPath id="87032d7c08"><path d="M 7 8.1875 L 30 8.1875 L 30 36.6875 L 7 36.6875 Z M 7 8.1875 " clip-rule="nonzero"/></clipPath><clipPath id="bf222e26d7"><path d="M 0 8.1875 L 14 8.1875 L 14 36.6875 L 0 36.6875 Z M 0 8.1875 " clip-rule="nonzero"/></clipPath></defs><path fill="#000000" d="M 144.117188 24.359375 L 144.117188 29.527344 L 141.382812 29.527344 L 141.382812 24.394531 L 135.605469 14.863281 L 138.523438 14.863281 L 142.832031 22.007812 L 147.1875 14.863281 L 149.882812 14.863281 Z M 144.117188 24.359375 " fill-opacity="1" fill-rule="nonzero"/><path fill="#000000" d="M 53.046875 14.863281 L 55.78125 14.863281 L 55.78125 27.214844 L 63.480469 27.214844 L 63.480469 29.515625 L 53.046875 29.515625 Z M 53.046875 14.863281 " fill-opacity="1" fill-rule="nonzero"/><path fill="#000000" d="M 124.910156 17.171875 L 120.027344 17.171875 L 120.027344 14.863281 L 132.519531 14.863281 L 132.519531 17.160156 L 127.640625 17.160156 L 127.640625 29.515625 L 124.910156 29.515625 Z M 124.910156 17.171875 " fill-opacity="1" fill-rule="nonzero"/><path fill="#000000" d="M 110.042969 14.847656 C 105.914062 14.847656 102.570312 18.179688 102.570312 22.292969 C 102.570312 26.410156 105.914062 29.738281 110.042969 29.738281 C 114.175781 29.738281 117.519531 26.410156 117.519531 22.292969 C 117.53125 18.179688 114.175781 14.847656 110.042969 14.847656 Z M 110.042969 27.242188 C 107.300781 27.242188 105.078125 25.027344 105.078125 22.292969 C 105.078125 19.558594 107.300781 17.347656 110.042969 17.347656 C 112.789062 17.347656 115.011719 19.558594 115.011719 22.292969 C 115.011719 25.027344 112.789062 27.242188 110.042969 27.242188 Z M 110.042969 27.242188 " fill-opacity="1" fill-rule="nonzero"/><path fill="#000000" d="M 75.085938 14.863281 L 72.390625 14.863281 L 65.765625 29.527344 L 68.585938 29.527344 L 73.714844 17.582031 L 78.867188 29.527344 L 81.726562 29.527344 Z M 75.085938 14.863281 " fill-opacity="1" fill-rule="nonzero"/><path fill="#000000" d="M 94.894531 24.707031 C 96.890625 23.933594 98.027344 22.292969 98.027344 20.082031 C 98.027344 16.839844 95.628906 14.863281 91.761719 14.863281 L 85.707031 14.863281 L 85.707031 17.171875 L 91.636719 17.171875 C 94.03125 17.171875 95.28125 18.242188 95.28125 20.082031 C 95.28125 21.921875 94.042969 23.015625 91.636719 23.015625 L 85.707031 23.015625 L 85.707031 29.527344 L 88.441406 29.527344 L 88.441406 25.253906 L 91.761719 25.253906 C 91.949219 25.253906 92.136719 25.253906 92.335938 25.226562 L 95.34375 29.515625 L 98.277344 29.515625 Z M 94.894531 24.707031 " fill-opacity="1" fill-rule="nonzero"/><path fill="#000000" d="M 42.601562 17.285156 L 48.304688 17.273438 L 48.304688 14.824219 L 42.601562 14.824219 C 38.484375 14.847656 35.152344 18.167969 35.152344 22.269531 C 35.152344 26.371094 38.484375 29.703125 42.601562 29.714844 L 42.601562 29.726562 L 48.304688 29.726562 L 48.304688 27.378906 L 42.601562 27.378906 C 39.816406 27.351562 37.570312 25.105469 37.570312 22.332031 C 37.570312 19.546875 39.816406 17.296875 42.601562 17.285156 Z M 42.601562 17.285156 " fill-opacity="1" fill-rule="nonzero"/><g clip-path="url(#87032d7c08)"><path fill="#e20ab7" d="M 27.238281 17.0625 L 26.078125 18.207031 C 25.601562 12.289062 20.597656 11.644531 19.464844 11.582031 L 20.511719 10.472656 C 18.5625 8.746094 16.703125 8.1875 15.082031 8.1875 L 15.082031 15.433594 C 14.96875 15.433594 14.871094 15.421875 14.757812 15.421875 L 14.746094 15.421875 C 10.777344 15.433594 7.570312 18.628906 7.570312 22.582031 C 7.570312 26.53125 10.777344 29.726562 14.746094 29.738281 L 14.757812 29.738281 C 14.871094 29.738281 14.984375 29.738281 15.082031 29.726562 L 15.082031 36.6875 C 16.703125 36.6875 18.5625 36.128906 20.511719 34.402344 L 19.625 33.46875 C 20.984375 33.355469 25.664062 32.546875 26.101562 26.820312 L 27.199219 27.863281 C 32.367188 22.109375 27.238281 17.0625 27.238281 17.0625 Z M 25.828125 18.453125 L 21.933594 22.28125 C 21.871094 20.914062 21.433594 19.648438 20.710938 18.589844 Z M 19.226562 11.816406 L 19.199219 16.949219 C 18.214844 16.179688 17.027344 15.65625 15.71875 15.484375 Z M 11.648438 22.59375 C 11.648438 20.878906 13.046875 19.496094 14.757812 19.496094 C 16.480469 19.496094 17.867188 20.890625 17.867188 22.59375 C 17.867188 24.308594 16.46875 25.6875 14.757812 25.6875 C 13.046875 25.6875 11.648438 24.296875 11.648438 22.59375 Z M 15.96875 29.652344 C 17.191406 29.453125 18.300781 28.945312 19.226562 28.210938 L 19.25 33.09375 Z M 20.785156 26.496094 C 21.472656 25.453125 21.882812 24.222656 21.933594 22.890625 L 25.867188 26.621094 Z M 20.785156 26.496094 " fill-opacity="1" fill-rule="nonzero"/></g><g clip-path="url(#bf222e26d7)"><path fill="#e20ab7" d="M 13.0625 31.332031 C 8.71875 30.671875 5.386719 26.941406 5.386719 22.445312 C 5.386719 17.945312 8.71875 14.203125 13.0625 13.558594 L 13.0625 8.25 C 5.796875 8.945312 0.117188 15.035156 0.117188 22.445312 C 0.117188 29.851562 5.796875 35.941406 13.0625 36.636719 Z M 13.0625 31.332031 " fill-opacity="1" fill-rule="nonzero"/></g></svg>