<svg xmlns="http://www.w3.org/2000/svg" xmlns:xlink="http://www.w3.org/1999/xlink" width="200" zoomAndPan="magnify" viewBox="0 0 150 44.999999" height="60" preserveAspectRatio="xMidYMid meet" version="1.0"><defs><clipPath id="a8e4e7b324"><path d="M 59 19 L 73 19 L 73 39.476562 L 59 39.476562 Z M 59 19 " clip-rule="nonzero"/></clipPath><clipPath id="090c963eaa"><path d="M 0 5.726562 L 18 5.726562 L 18 27 L 0 27 Z M 0 5.726562 " clip-rule="nonzero"/></clipPath></defs><path fill="#000000" d="M 9.824219 38.335938 C 4.523438 38.335938 0.171875 33.957031 0.171875 28.578125 C 0.171875 23.195312 4.523438 18.816406 9.824219 18.816406 C 15.851562 18.816406 27.410156 22.601562 27.410156 28.578125 C 27.410156 34.550781 15.898438 38.335938 9.824219 38.335938 Z M 9.824219 20.960938 C 5.65625 20.960938 2.257812 24.382812 2.257812 28.578125 C 2.257812 32.773438 5.65625 36.195312 9.824219 36.195312 C 12.726562 36.195312 16.667969 35.28125 19.796875 33.867188 C 23.285156 32.269531 25.324219 30.355469 25.324219 28.578125 C 25.324219 26.796875 23.332031 24.882812 19.84375 23.285156 C 16.667969 21.871094 12.769531 20.960938 9.824219 20.960938 Z M 9.824219 20.960938 " fill-opacity="1" fill-rule="nonzero"/><path fill="#000000" d="M 106.769531 22.511719 C 106.816406 22.511719 106.863281 22.511719 106.90625 22.464844 C 106.953125 22.417969 106.953125 22.375 107 22.328125 L 107.089844 20.414062 C 107.089844 20.140625 106.90625 19.957031 106.679688 19.910156 C 104.824219 19.546875 103.101562 20.457031 102.238281 21.917969 L 102.238281 20.640625 C 102.238281 20.367188 102.011719 20.140625 101.742188 20.140625 L 100.152344 20.140625 C 99.882812 20.140625 99.65625 20.367188 99.65625 20.640625 L 99.65625 32.589844 C 99.65625 32.863281 99.882812 33.09375 100.152344 33.09375 L 101.742188 33.09375 C 102.011719 33.09375 102.238281 32.863281 102.238281 32.589844 L 102.238281 26.523438 C 102.238281 25.15625 102.554688 24.152344 103.144531 23.515625 C 103.960938 22.558594 105.59375 22.375 106.769531 22.511719 Z M 106.769531 22.511719 " fill-opacity="1" fill-rule="nonzero"/><path fill="#000000" d="M 54.289062 33.046875 C 54.015625 33.046875 53.789062 32.820312 53.789062 32.542969 L 53.789062 20.59375 C 53.789062 20.320312 54.015625 20.09375 54.289062 20.09375 L 55.875 20.09375 C 56.144531 20.09375 56.371094 20.320312 56.371094 20.59375 L 56.371094 32.542969 C 56.371094 32.820312 56.144531 33.046875 55.875 33.046875 Z M 55.058594 17.402344 C 54.105469 17.402344 53.289062 16.582031 53.289062 15.625 C 53.289062 14.667969 54.0625 13.84375 55.058594 13.84375 C 56.007812 13.84375 56.824219 14.667969 56.824219 15.625 C 56.824219 16.582031 56.054688 17.402344 55.058594 17.402344 Z M 55.058594 17.402344 " fill-opacity="1" fill-rule="nonzero"/><path fill="#000000" d="M 109.761719 33.046875 C 109.492188 33.046875 109.265625 32.820312 109.265625 32.542969 L 109.265625 20.59375 C 109.265625 20.320312 109.492188 20.09375 109.761719 20.09375 L 111.347656 20.09375 C 111.621094 20.09375 111.847656 20.320312 111.847656 20.59375 L 111.847656 32.542969 C 111.847656 32.820312 111.621094 33.046875 111.347656 33.046875 Z M 109.761719 33.046875 " fill-opacity="1" fill-rule="nonzero"/><path fill="#000000" d="M 136.003906 33.046875 C 135.867188 33.046875 135.734375 33 135.640625 32.863281 L 130.113281 26.570312 L 130.113281 32.5 C 130.113281 32.773438 129.886719 33 129.613281 33 L 128.027344 33 C 127.757812 33 127.53125 32.773438 127.53125 32.5 L 127.53125 14.300781 C 127.53125 14.027344 127.757812 13.800781 128.027344 13.800781 L 129.613281 13.800781 C 129.886719 13.800781 130.113281 14.027344 130.113281 14.300781 L 130.113281 25.476562 L 135.234375 20.277344 C 135.324219 20.183594 135.460938 20.140625 135.597656 20.140625 L 138.496094 20.140625 C 138.589844 20.140625 138.632812 20.183594 138.679688 20.277344 C 138.722656 20.367188 138.679688 20.457031 138.632812 20.503906 L 133.058594 26.023438 L 139.175781 32.726562 C 139.222656 32.773438 139.269531 32.863281 139.222656 32.957031 C 139.175781 33.046875 139.132812 33.09375 139.042969 33.09375 Z M 136.003906 33.046875 " fill-opacity="1" fill-rule="nonzero"/><path fill="#000000" d="M 84.835938 33.046875 C 84.5625 33.046875 84.335938 32.820312 84.335938 32.542969 L 84.335938 25.382812 C 84.335938 23.515625 83.429688 22.191406 81.570312 22.191406 C 79.214844 22.191406 78.171875 23.925781 78.171875 26.34375 L 78.171875 32.5 C 78.171875 32.773438 77.945312 33 77.675781 33 L 76.085938 33 C 75.816406 33 75.589844 32.773438 75.589844 32.5 L 75.589844 14.300781 C 75.589844 14.027344 75.816406 13.800781 76.085938 13.800781 L 77.675781 13.800781 C 77.945312 13.800781 78.171875 14.027344 78.171875 14.300781 L 78.171875 21.828125 C 78.941406 20.414062 80.664062 19.773438 82.25 19.773438 C 85.015625 19.773438 86.921875 21.554688 86.921875 24.746094 L 86.921875 32.542969 C 86.921875 32.820312 86.691406 33.046875 86.421875 33.046875 Z M 84.835938 33.046875 " fill-opacity="1" fill-rule="nonzero"/><path fill="#000000" d="M 41.054688 33.046875 C 40.78125 33.046875 40.554688 32.820312 40.554688 32.542969 L 40.554688 14.300781 C 40.554688 14.027344 40.78125 13.800781 41.054688 13.800781 L 42.773438 13.800781 C 43.046875 13.800781 43.273438 14.027344 43.273438 14.300781 L 43.273438 30.402344 L 51.339844 30.402344 C 51.613281 30.402344 51.839844 30.628906 51.839844 30.902344 L 51.839844 32.5 C 51.839844 32.773438 51.613281 33 51.339844 33 Z M 41.054688 33.046875 " fill-opacity="1" fill-rule="nonzero"/><path fill="#000000" d="M 125.308594 30.949219 C 125.398438 31.039062 125.445312 31.175781 125.445312 31.3125 C 125.445312 31.449219 125.398438 31.585938 125.308594 31.679688 C 124.085938 32.863281 122.542969 33.367188 120.777344 33.367188 C 116.96875 33.367188 114.113281 30.71875 114.113281 26.617188 C 114.113281 22.695312 116.742188 19.773438 120.777344 19.773438 C 122.5 19.773438 124.085938 20.320312 125.355469 21.507812 C 125.445312 21.597656 125.535156 21.734375 125.535156 21.871094 C 125.535156 22.007812 125.488281 22.144531 125.355469 22.238281 L 124.222656 23.285156 C 124.039062 23.46875 123.769531 23.46875 123.539062 23.285156 C 122.769531 22.601562 121.773438 22.191406 120.6875 22.191406 C 118.191406 22.191406 116.878906 24.246094 116.878906 26.617188 C 116.878906 28.941406 118.417969 30.855469 120.820312 30.855469 C 121.820312 30.855469 122.769531 30.539062 123.539062 29.808594 C 123.632812 29.71875 123.722656 29.625 123.902344 29.625 C 124.039062 29.625 124.175781 29.671875 124.265625 29.761719 Z M 125.308594 30.949219 " fill-opacity="1" fill-rule="nonzero"/><path fill="#000000" d="M 142.9375 23.558594 C 142.9375 22.875 143.617188 22.238281 144.933594 22.238281 C 145.839844 22.238281 146.65625 22.601562 147.289062 23.195312 C 147.472656 23.378906 147.742188 23.378906 147.925781 23.242188 L 149.058594 22.375 C 149.148438 22.28125 149.238281 22.144531 149.238281 22.007812 C 149.238281 21.871094 149.195312 21.734375 149.101562 21.644531 C 148.152344 20.503906 146.792969 19.820312 145.023438 19.820312 C 142.441406 19.820312 140.175781 21.28125 140.175781 23.878906 C 140.175781 25.109375 140.765625 26.480469 142.621094 27.164062 C 144.527344 27.847656 147.019531 27.847656 147.019531 29.445312 C 147.019531 30.492188 145.75 30.949219 144.570312 30.949219 C 143.664062 30.949219 142.53125 30.539062 141.804688 29.761719 C 141.625 29.582031 141.351562 29.582031 141.125 29.71875 L 140.039062 30.628906 C 139.949219 30.71875 139.855469 30.855469 139.855469 30.996094 C 139.855469 31.132812 139.902344 31.269531 139.992188 31.359375 C 141.082031 32.589844 142.667969 33.410156 144.570312 33.410156 C 147.289062 33.410156 149.78125 32.089844 149.78125 29.308594 C 149.78125 24.199219 142.9375 26.296875 142.9375 23.558594 Z M 142.9375 23.558594 " fill-opacity="1" fill-rule="nonzero"/><path fill="#000000" d="M 93.855469 29.125 C 93.855469 28.757812 93.808594 28.441406 93.808594 28.074219 L 93.808594 22.417969 L 96.710938 22.417969 C 96.980469 22.417969 97.207031 22.191406 97.207031 21.917969 L 97.207031 20.640625 C 97.207031 20.367188 96.980469 20.140625 96.710938 20.140625 L 93.808594 20.140625 L 93.808594 17.082031 C 93.808594 16.808594 93.582031 16.582031 93.308594 16.582031 L 91.722656 16.582031 C 91.453125 16.582031 91.226562 16.808594 91.226562 17.082031 L 91.226562 20.140625 L 88.960938 20.140625 C 88.6875 20.140625 88.460938 20.367188 88.460938 20.640625 L 88.460938 21.917969 C 88.460938 22.191406 88.6875 22.417969 88.960938 22.417969 L 91.226562 22.417969 L 91.226562 28.941406 C 91.226562 30.539062 91.269531 31.816406 92.359375 32.636719 C 93.582031 33.59375 95.847656 33.503906 96.980469 33.046875 C 97.164062 32.957031 97.300781 32.773438 97.300781 32.589844 L 97.300781 30.855469 C 97.300781 30.8125 97.253906 30.71875 97.207031 30.675781 C 97.164062 30.628906 97.074219 30.628906 97.027344 30.628906 C 95.441406 31.269531 93.945312 30.949219 93.855469 29.125 Z M 93.855469 29.125 " fill-opacity="1" fill-rule="nonzero"/><g clip-path="url(#a8e4e7b324)"><path fill="#000000" d="M 70.378906 20.09375 C 70.105469 20.09375 69.878906 20.320312 69.878906 20.59375 L 69.878906 21.78125 C 68.882812 20.457031 67.160156 19.773438 65.574219 19.773438 C 61.628906 19.773438 59.089844 22.785156 59.089844 26.570312 C 59.089844 30.355469 61.855469 33.183594 65.574219 33.183594 C 67.25 33.183594 68.925781 32.5 69.878906 31.039062 C 69.878906 32.820312 70.378906 37.015625 65.4375 37.015625 C 63.894531 37.058594 62.398438 36.421875 61.265625 35.371094 C 61.175781 35.28125 61.039062 35.234375 60.90625 35.234375 C 60.769531 35.234375 60.632812 35.328125 60.542969 35.417969 L 59.5 36.695312 C 59.316406 36.921875 59.363281 37.242188 59.542969 37.425781 C 61.085938 38.746094 62.808594 39.476562 65.4375 39.476562 C 69.46875 39.476562 72.371094 36.878906 72.371094 32.820312 L 72.371094 20.59375 C 72.371094 20.320312 72.144531 20.09375 71.871094 20.09375 Z M 65.84375 30.71875 C 63.304688 30.71875 61.8125 29.03125 61.8125 26.570312 C 61.8125 23.925781 63.488281 22.238281 65.84375 22.238281 C 68.203125 22.238281 69.878906 23.925781 69.878906 26.570312 C 69.878906 29.078125 68.335938 30.71875 65.84375 30.71875 Z M 65.84375 30.71875 " fill-opacity="1" fill-rule="nonzero"/></g><g clip-path="url(#090c963eaa)"><path fill="#000000" d="M 3.753906 20.960938 C 4.207031 19.226562 5.113281 16.671875 5.519531 15.625 C 7.46875 10.789062 9.691406 7.871094 11.457031 7.871094 C 13.722656 7.871094 15.265625 12.570312 15.851562 14.804688 C 16.535156 14.574219 17.257812 14.394531 17.894531 14.257812 C 16.988281 10.746094 15.082031 5.726562 11.457031 5.726562 C 7.289062 5.726562 4.023438 12.933594 2.074219 19.320312 C 1.167969 22.375 0.535156 25.203125 0.308594 26.933594 C 0.714844 24.519531 1.984375 22.417969 3.753906 20.960938 Z M 3.753906 20.960938 " fill-opacity="1" fill-rule="nonzero"/></g><path fill="#000000" d="M 16.894531 19.957031 C 17.667969 20.183594 18.390625 20.414062 19.117188 20.6875 C 18.933594 19.273438 18.707031 17.769531 18.390625 16.355469 C 17.710938 16.492188 17.03125 16.671875 16.351562 16.902344 C 16.578125 17.90625 16.761719 18.953125 16.894531 19.957031 Z M 16.894531 19.957031 " fill-opacity="1" fill-rule="nonzero"/><path fill="#000000" d="M 19.386719 23.105469 C 18.664062 22.785156 17.9375 22.511719 17.167969 22.28125 C 17.441406 25.066406 17.484375 27.621094 17.347656 29.261719 C 17.214844 30.996094 16.441406 32.589844 15.308594 33.820312 C 16.625 32.589844 18.121094 30.675781 19.523438 28.578125 C 19.613281 27.164062 19.570312 25.246094 19.386719 23.105469 Z M 19.386719 23.105469 " fill-opacity="1" fill-rule="nonzero"/><path fill="#000000" d="M 17.257812 34.824219 C 19.386719 32.589844 21.882812 29.078125 23.648438 25.65625 C 23.195312 25.246094 22.605469 24.792969 21.925781 24.382812 C 20.113281 27.894531 17.484375 31.585938 15.398438 33.640625 C 13.769531 35.234375 11.957031 36.148438 9.734375 36.148438 C 12.183594 36.195312 14.992188 35.601562 17.257812 34.824219 Z M 17.257812 34.824219 " fill-opacity="1" fill-rule="nonzero"/><path fill="#000000" d="M 9.824219 38.335938 C 4.523438 38.335938 0.171875 33.957031 0.171875 28.578125 C 0.171875 23.195312 4.523438 18.816406 9.824219 18.816406 C 15.851562 18.816406 27.410156 22.601562 27.410156 28.578125 C 27.410156 34.550781 15.898438 38.335938 9.824219 38.335938 Z M 9.824219 20.960938 C 5.65625 20.960938 2.257812 24.382812 2.257812 28.578125 C 2.257812 32.773438 5.65625 36.195312 9.824219 36.195312 C 12.726562 36.195312 16.667969 35.28125 19.796875 33.867188 C 23.285156 32.269531 25.324219 30.355469 25.324219 28.578125 C 25.324219 26.796875 23.332031 24.882812 19.84375 23.285156 C 16.667969 21.871094 12.769531 20.960938 9.824219 20.960938 Z M 9.824219 20.960938 " fill-opacity="1" fill-rule="nonzero"/><path fill="#000000" d="M 9.824219 18.816406 C 10.277344 18.816406 10.777344 18.863281 11.320312 18.90625 C 14.855469 17.265625 18.890625 15.988281 21.519531 15.988281 C 22.289062 15.988281 23.285156 16.082031 23.738281 16.671875 C 24.148438 17.21875 24.101562 18.179688 24.011719 18.863281 C 23.832031 19.910156 23.421875 21.1875 22.832031 22.511719 C 23.46875 22.921875 24.148438 23.378906 24.601562 23.742188 C 25.371094 22.101562 25.914062 20.503906 26.097656 19.226562 C 26.367188 17.539062 26.097656 16.21875 25.324219 15.304688 C 24.417969 14.164062 22.96875 13.890625 21.519531 13.84375 C 18.253906 13.84375 13.316406 15.488281 9.234375 17.539062 C 7.421875 18.453125 5.699219 19.5 4.070312 20.777344 C 5.746094 19.5 7.695312 18.816406 9.824219 18.816406 Z M 9.824219 18.816406 " fill-opacity="1" fill-rule="nonzero"/><path fill="#000000" d="M 110.578125 17.402344 C 109.625 17.402344 108.8125 16.582031 108.8125 15.625 C 108.8125 14.667969 109.582031 13.84375 110.578125 13.84375 C 111.53125 13.84375 112.347656 14.667969 112.347656 15.625 C 112.300781 16.582031 111.53125 17.402344 110.578125 17.402344 Z M 110.578125 17.402344 " fill-opacity="1" fill-rule="nonzero"/></svg>