<svg xmlns="http://www.w3.org/2000/svg" xmlns:xlink="http://www.w3.org/1999/xlink" width="200" zoomAndPan="magnify" viewBox="0 0 150 44.999999" height="60" preserveAspectRatio="xMidYMid meet" version="1.0"><path fill="#da2128" d="M 123.96875 22.390625 C 123.96875 18.855469 123.4375 17.4375 120.035156 17.4375 C 117.316406 17.4375 116.535156 18.226562 116.535156 22.390625 C 116.535156 26.148438 116.535156 28.328125 120.035156 28.328125 C 123.96875 28.328125 123.96875 26.335938 123.96875 22.390625 M 85.472656 17.4375 C 82.070312 17.4375 81.851562 18.164062 81.851562 21.097656 L 89.1875 21.097656 C 89.1875 17.6875 88.6875 17.4375 85.472656 17.4375 M 106.515625 22.390625 C 106.515625 18.855469 106.046875 17.4375 102.644531 17.4375 C 99.925781 17.4375 99.148438 18.226562 99.148438 22.390625 C 99.148438 26.148438 99.054688 28.328125 102.644531 28.328125 C 106.671875 28.328125 106.515625 26.335938 106.515625 22.390625 M 147.457031 7.527344 L 110.511719 7.527344 L 110.511719 31.167969 L 106.578125 31.167969 L 106.734375 28.671875 L 106.609375 28.671875 C 105.609375 30.851562 103.800781 31.355469 101.488281 31.355469 C 95.402344 31.355469 95.214844 27.472656 95.214844 22.390625 C 95.214844 17.53125 95.871094 14.40625 101.488281 14.40625 C 103.488281 14.40625 105.578125 14.785156 106.421875 16.804688 L 106.578125 16.804688 L 106.578125 7.527344 L 86.03125 7.527344 C 86.03125 7.527344 83.765625 7.527344 83.023438 9.695312 L 81.199219 15.023438 C 82.261719 14.613281 83.644531 14.40625 85.472656 14.40625 C 92.214844 14.40625 93.121094 16.394531 93.121094 23.621094 L 81.851562 23.621094 C 81.851562 27.191406 81.945312 28.328125 85.472656 28.328125 C 87.65625 28.328125 89.1875 28.359375 89.1875 25.894531 L 93.121094 25.894531 C 93.121094 31.105469 90.15625 31.355469 85.472656 31.355469 C 79.75 31.355469 78.183594 29.664062 77.953125 24.507812 L 74.132812 35.675781 C 74.132812 35.675781 73.390625 37.84375 75.660156 37.84375 L 115.601562 37.84375 C 114.058594 37.128906 113.148438 35.6875 113.289062 32.871094 L 116.972656 32.871094 C 116.972656 35.144531 117.816406 35.492188 120.035156 35.492188 C 123.375 35.492188 124.09375 34.796875 124.09375 31.957031 L 124.09375 28.800781 L 124 28.800781 C 122.96875 30.976562 120.875 31.355469 118.878906 31.355469 C 113.257812 31.355469 112.601562 28.230469 112.601562 23.371094 C 112.601562 18.289062 112.789062 14.40625 118.878906 14.40625 C 121.1875 14.40625 123 14.910156 124 17.089844 L 124.121094 17.089844 L 123.96875 14.59375 L 127.902344 14.59375 L 127.902344 31.136719 C 127.902344 34.992188 127.109375 36.945312 124.933594 37.84375 L 137.082031 37.84375 C 137.082031 37.84375 139.351562 37.84375 140.09375 35.675781 L 141.664062 31.082031 C 140.519531 31.320312 139.136719 31.355469 137.546875 31.355469 C 131.273438 31.355469 129.992188 29.335938 129.992188 22.929688 C 129.992188 16.996094 130.929688 14.40625 137.546875 14.40625 C 143.371094 14.40625 144.835938 15.898438 145.128906 20.953125 L 148.984375 9.695312 C 148.984375 9.695312 149.726562 7.527344 147.457031 7.527344 M 133.925781 21.097656 L 141.261719 21.097656 C 141.261719 17.6875 140.761719 17.4375 137.546875 17.4375 C 134.144531 17.4375 133.925781 18.164062 133.925781 21.097656 M 141.261719 25.894531 L 143.441406 25.894531 L 144.21875 23.621094 L 133.925781 23.621094 C 133.925781 27.191406 134.019531 28.328125 137.546875 28.328125 C 139.734375 28.328125 141.261719 28.359375 141.261719 25.894531 " fill-opacity="1" fill-rule="nonzero"/><path fill="#000000" d="M 15.417969 19.109375 C 15.417969 14.46875 11.578125 14.40625 8.363281 14.40625 C 4.148438 14.40625 0.898438 14.5 0.898438 19.046875 C 0.898438 23.277344 1.992188 24.097656 8.019531 24.191406 C 11.984375 24.253906 12.078125 24.980469 12.078125 26.433594 C 12.078125 28.703125 10.703125 28.640625 8.363281 28.640625 C 5.457031 28.640625 4.898438 28.359375 4.832031 25.957031 L 0.898438 25.957031 C 0.898438 31.355469 3.898438 31.355469 8.363281 31.355469 C 12.515625 31.355469 16.011719 30.914062 16.011719 26.433594 C 16.011719 21.066406 12.578125 21.351562 8.703125 21.160156 C 5.273438 21.003906 4.832031 20.941406 4.832031 19.296875 C 4.832031 17.121094 6.269531 17.121094 8.363281 17.121094 C 10.453125 17.121094 11.484375 17.121094 11.484375 19.109375 Z M 26.0625 14.40625 C 19.226562 14.40625 18.351562 16.457031 18.351562 22.898438 C 18.351562 29.304688 19.226562 31.355469 26.0625 31.355469 C 32.902344 31.355469 33.773438 29.304688 33.773438 22.898438 C 33.773438 16.457031 32.902344 14.40625 26.0625 14.40625 M 26.0625 17.4375 C 29.558594 17.4375 29.839844 18.445312 29.839844 22.929688 C 29.839844 27.347656 29.558594 28.324219 26.0625 28.324219 C 22.566406 28.324219 22.285156 27.347656 22.285156 22.929688 C 22.285156 18.445312 22.566406 17.4375 26.0625 17.4375 M 41.050781 7.492188 L 37.113281 7.492188 L 37.113281 31.167969 L 41.050781 31.167969 Z M 51.882812 23.71875 C 53.816406 23.71875 55.503906 23.78125 55.503906 26.085938 C 55.503906 28.453125 53.972656 28.640625 51.882812 28.640625 C 49.230469 28.640625 48.292969 28.421875 48.292969 26.085938 C 48.292969 23.71875 49.882812 23.71875 51.882812 23.71875 M 55.503906 31.167969 L 59.4375 31.167969 L 59.4375 20.78125 C 59.4375 15.226562 57.25 14.40625 52.007812 14.40625 C 48.261719 14.40625 44.984375 14.597656 44.984375 19.425781 L 48.917969 19.425781 C 48.917969 17.277344 50.289062 17.121094 52.007812 17.121094 C 55.285156 17.121094 55.503906 18.066406 55.503906 20.75 L 55.503906 22.898438 L 55.378906 22.898438 C 54.441406 21.035156 52.476562 21.003906 50.476562 21.003906 C 46.417969 21.003906 44.359375 22.109375 44.359375 26.085938 C 44.359375 30.566406 46.761719 31.355469 50.476562 31.355469 C 52.382812 31.355469 54.785156 31.292969 55.566406 29.082031 L 55.660156 29.082031 Z M 63.058594 14.597656 L 63.058594 31.167969 L 66.992188 31.167969 L 66.992188 20.941406 C 66.929688 18.792969 67.617188 17.4375 69.957031 17.4375 C 71.800781 17.4375 71.957031 18.414062 71.957031 20.085938 L 71.957031 20.941406 L 75.640625 20.941406 L 75.640625 19.613281 C 75.640625 16.488281 74.796875 14.40625 71.332031 14.40625 C 69.429688 14.40625 67.742188 14.941406 66.960938 16.773438 L 66.804688 16.773438 L 66.898438 14.597656 Z M 63.058594 14.597656 " fill-opacity="1" fill-rule="nonzero"/></svg>