<svg xmlns="http://www.w3.org/2000/svg" xmlns:xlink="http://www.w3.org/1999/xlink" width="200" zoomAndPan="magnify" viewBox="0 0 150 44.999999" height="60" preserveAspectRatio="xMidYMid meet" version="1.0"><defs><clipPath id="c2aed8c860"><path d="M 0 10.089844 L 150 10.089844 L 150 34.839844 L 0 34.839844 Z M 0 10.089844 " clip-rule="nonzero"/></clipPath></defs><g clip-path="url(#c2aed8c860)"><path fill="#009999" d="M 9.226562 10.09375 C 10.714844 10.09375 12.898438 10.390625 15.773438 10.984375 L 15.773438 15.539062 C 13.640625 14.648438 11.707031 14.203125 9.871094 14.203125 C 7.292969 14.203125 6.050781 14.945312 6.050781 16.429688 C 6.050781 16.972656 6.300781 17.417969 6.84375 17.765625 C 7.292969 18.0625 8.480469 18.65625 10.417969 19.546875 C 13.195312 20.832031 15.078125 21.972656 15.972656 22.910156 C 17.0625 24.050781 17.609375 25.535156 17.609375 27.316406 C 17.609375 29.890625 16.519531 31.867188 14.386719 33.203125 C 12.648438 34.292969 10.367188 34.835938 7.589844 34.835938 C 5.257812 34.835938 2.878906 34.539062 0.496094 33.945312 L 0.496094 29.246094 C 3.074219 30.085938 5.355469 30.53125 7.292969 30.53125 C 10.019531 30.53125 11.410156 29.789062 11.410156 28.253906 C 11.410156 27.710938 11.210938 27.214844 10.8125 26.820312 C 10.417969 26.425781 9.375 25.832031 7.6875 25.136719 C 4.664062 23.851562 2.726562 22.761719 1.835938 21.824219 C 0.59375 20.683594 0 19.148438 0 17.320312 C 0 14.945312 0.84375 13.164062 2.578125 11.925781 C 4.265625 10.6875 6.496094 10.09375 9.226562 10.09375 Z M 141.667969 10.09375 C 143.203125 10.09375 145.1875 10.34375 147.617188 10.835938 L 148.164062 10.9375 L 148.164062 15.488281 C 146.03125 14.597656 144.046875 14.152344 142.261719 14.152344 C 139.730469 14.152344 138.441406 14.894531 138.441406 16.378906 C 138.441406 16.921875 138.691406 17.367188 139.234375 17.714844 C 139.632812 17.960938 140.824219 18.554688 142.808594 19.496094 C 145.585938 20.785156 147.421875 21.921875 148.363281 22.863281 C 149.453125 24 150 25.484375 150 27.265625 C 150 29.839844 148.910156 31.820312 146.777344 33.15625 C 145.039062 34.242188 142.757812 34.789062 139.980469 34.789062 C 137.648438 34.789062 135.269531 34.492188 132.886719 33.898438 L 132.886719 29.195312 C 135.417969 30.039062 137.699219 30.484375 139.683594 30.484375 C 142.410156 30.484375 143.75 29.742188 143.75 28.207031 C 143.75 27.660156 143.550781 27.167969 143.15625 26.769531 C 142.757812 26.375 141.714844 25.78125 140.03125 25.089844 C 137.054688 23.800781 135.070312 22.714844 134.128906 21.773438 C 132.9375 20.585938 132.339844 19.050781 132.339844 17.21875 C 132.339844 14.894531 133.183594 13.0625 134.921875 11.828125 C 136.707031 10.6875 138.9375 10.09375 141.667969 10.09375 Z M 62.449219 10.492188 L 68.203125 25.730469 L 74.105469 10.492188 L 81.945312 10.492188 L 81.945312 34.34375 L 75.894531 34.34375 L 75.894531 17.46875 L 69.195312 34.589844 L 65.226562 34.589844 L 58.679688 17.46875 L 58.679688 34.34375 L 54.167969 34.34375 L 54.167969 10.492188 Z M 27.53125 10.492188 L 27.53125 34.34375 L 21.179688 34.34375 L 21.179688 10.492188 Z M 49.753906 10.492188 L 49.753906 14.796875 L 39.535156 14.796875 L 39.535156 20.191406 L 48.414062 20.191406 L 48.414062 24.148438 L 39.535156 24.148438 L 39.535156 29.789062 L 50 29.789062 L 50 34.34375 L 33.382812 34.34375 L 33.382812 10.492188 Z M 104.167969 10.492188 L 104.167969 14.796875 L 93.949219 14.796875 L 93.949219 20.191406 L 102.828125 20.191406 L 102.828125 24.148438 L 93.949219 24.148438 L 93.949219 29.789062 L 104.414062 29.789062 L 104.414062 34.34375 L 87.796875 34.34375 L 87.796875 10.492188 Z M 116.023438 10.492188 L 123.859375 26.472656 L 123.859375 10.492188 L 128.371094 10.492188 L 128.371094 34.34375 L 121.179688 34.34375 L 113.144531 18.160156 L 113.144531 34.34375 L 108.632812 34.34375 L 108.632812 10.492188 Z M 116.023438 10.492188 " fill-opacity="1" fill-rule="evenodd"/></g></svg>