<svg xmlns="http://www.w3.org/2000/svg" xmlns:xlink="http://www.w3.org/1999/xlink" width="200" zoomAndPan="magnify" viewBox="0 0 150 44.999999" height="60" preserveAspectRatio="xMidYMid meet" version="1.0"><defs><clipPath id="5251de2841"><path d="M 0 2.589844 L 29 2.589844 L 29 35 L 0 35 Z M 0 2.589844 " clip-rule="nonzero"/></clipPath></defs><path fill="#253b80" d="M 55.953125 10.71875 L 47.703125 10.71875 C 47.140625 10.71875 46.660156 11.128906 46.570312 11.6875 L 43.234375 32.8125 C 43.167969 33.226562 43.492188 33.601562 43.914062 33.601562 L 47.851562 33.601562 C 48.417969 33.601562 48.898438 33.195312 48.984375 32.636719 L 49.886719 26.9375 C 49.972656 26.378906 50.453125 25.972656 51.015625 25.972656 L 53.628906 25.972656 C 59.0625 25.972656 62.199219 23.34375 63.019531 18.140625 C 63.386719 15.863281 63.035156 14.078125 61.96875 12.824219 C 60.792969 11.449219 58.714844 10.71875 55.953125 10.71875 Z M 56.90625 18.433594 C 56.453125 21.390625 54.191406 21.390625 52.003906 21.390625 L 50.761719 21.390625 L 51.632812 15.871094 C 51.683594 15.539062 51.976562 15.292969 52.3125 15.292969 L 52.882812 15.292969 C 54.375 15.292969 55.777344 15.292969 56.503906 16.140625 C 56.9375 16.644531 57.070312 17.398438 56.90625 18.433594 Z M 56.90625 18.433594 " fill-opacity="1" fill-rule="nonzero"/><path fill="#253b80" d="M 80.613281 18.339844 L 76.664062 18.339844 C 76.328125 18.339844 76.035156 18.585938 75.984375 18.917969 L 75.808594 20.023438 L 75.53125 19.625 C 74.679688 18.382812 72.769531 17.96875 70.867188 17.96875 C 66.5 17.96875 62.773438 21.269531 62.046875 25.902344 C 61.667969 28.210938 62.207031 30.421875 63.519531 31.960938 C 64.722656 33.378906 66.445312 33.96875 68.496094 33.96875 C 72.011719 33.96875 73.960938 31.710938 73.960938 31.710938 L 73.785156 32.808594 C 73.71875 33.226562 74.042969 33.601562 74.464844 33.601562 L 78.023438 33.601562 C 78.589844 33.601562 79.066406 33.191406 79.15625 32.632812 L 81.289062 19.132812 C 81.359375 18.71875 81.035156 18.339844 80.613281 18.339844 Z M 75.105469 26.019531 C 74.726562 28.273438 72.933594 29.785156 70.648438 29.785156 C 69.503906 29.785156 68.585938 29.417969 67.996094 28.722656 C 67.414062 28.03125 67.191406 27.046875 67.378906 25.949219 C 67.734375 23.714844 69.554688 22.152344 71.804688 22.152344 C 72.925781 22.152344 73.839844 22.523438 74.4375 23.226562 C 75.039062 23.9375 75.28125 24.925781 75.105469 26.019531 Z M 75.105469 26.019531 " fill-opacity="1" fill-rule="nonzero"/><path fill="#253b80" d="M 101.65625 18.339844 L 97.683594 18.339844 C 97.304688 18.339844 96.949219 18.527344 96.734375 18.84375 L 91.261719 26.894531 L 88.9375 19.15625 C 88.792969 18.671875 88.34375 18.339844 87.839844 18.339844 L 83.9375 18.339844 C 83.464844 18.339844 83.132812 18.804688 83.285156 19.25 L 87.65625 32.0625 L 83.546875 37.859375 C 83.222656 38.3125 83.550781 38.941406 84.109375 38.941406 L 88.074219 38.941406 C 88.449219 38.941406 88.800781 38.757812 89.015625 38.449219 L 102.21875 19.417969 C 102.535156 18.964844 102.210938 18.339844 101.65625 18.339844 Z M 101.65625 18.339844 " fill-opacity="1" fill-rule="nonzero"/><path fill="#179bd7" d="M 114.800781 10.71875 L 106.546875 10.71875 C 105.984375 10.71875 105.503906 11.128906 105.417969 11.6875 L 102.078125 32.8125 C 102.011719 33.226562 102.335938 33.601562 102.757812 33.601562 L 106.992188 33.601562 C 107.386719 33.601562 107.722656 33.316406 107.78125 32.925781 L 108.730469 26.9375 C 108.816406 26.378906 109.296875 25.972656 109.863281 25.972656 L 112.472656 25.972656 C 117.90625 25.972656 121.042969 23.34375 121.863281 18.140625 C 122.234375 15.863281 121.878906 14.078125 120.808594 12.824219 C 119.640625 11.449219 117.558594 10.71875 114.800781 10.71875 Z M 115.75 18.433594 C 115.300781 21.390625 113.039062 21.390625 110.851562 21.390625 L 109.605469 21.390625 L 110.480469 15.871094 C 110.535156 15.539062 110.820312 15.292969 111.160156 15.292969 L 111.730469 15.292969 C 113.21875 15.292969 114.625 15.292969 115.351562 16.140625 C 115.785156 16.644531 115.914062 17.398438 115.75 18.433594 Z M 115.75 18.433594 " fill-opacity="1" fill-rule="nonzero"/><path fill="#179bd7" d="M 139.457031 18.339844 L 135.511719 18.339844 C 135.171875 18.339844 134.882812 18.585938 134.832031 18.917969 L 134.65625 20.023438 L 134.378906 19.625 C 133.523438 18.382812 131.617188 17.96875 129.714844 17.96875 C 125.347656 17.96875 121.621094 21.269531 120.894531 25.902344 C 120.519531 28.210938 121.054688 30.421875 122.367188 31.960938 C 123.574219 33.378906 125.292969 33.96875 127.34375 33.96875 C 130.859375 33.96875 132.808594 31.710938 132.808594 31.710938 L 132.632812 32.808594 C 132.566406 33.226562 132.890625 33.601562 133.316406 33.601562 L 136.871094 33.601562 C 137.4375 33.601562 137.914062 33.191406 138.003906 32.632812 L 140.140625 19.132812 C 140.207031 18.71875 139.882812 18.339844 139.457031 18.339844 Z M 133.953125 26.019531 C 133.574219 28.273438 131.777344 29.785156 129.496094 29.785156 C 128.347656 29.785156 127.429688 29.417969 126.839844 28.722656 C 126.257812 28.03125 126.039062 27.046875 126.222656 25.949219 C 126.578125 23.714844 128.398438 22.152344 130.648438 22.152344 C 131.769531 22.152344 132.683594 22.523438 133.285156 23.226562 C 133.886719 23.9375 134.125 24.925781 133.953125 26.019531 Z M 133.953125 26.019531 " fill-opacity="1" fill-rule="nonzero"/><path fill="#179bd7" d="M 144.117188 11.300781 L 140.730469 32.808594 C 140.664062 33.226562 140.988281 33.601562 141.40625 33.601562 L 144.8125 33.601562 C 145.378906 33.601562 145.859375 33.195312 145.945312 32.636719 L 149.285156 11.511719 C 149.351562 11.097656 149.027344 10.71875 148.605469 10.71875 L 144.792969 10.71875 C 144.457031 10.71875 144.167969 10.964844 144.117188 11.300781 Z M 144.117188 11.300781 " fill-opacity="1" fill-rule="nonzero"/><path fill="#253b80" d="M 8.972656 37.707031 L 9.605469 33.707031 L 8.199219 33.675781 L 1.488281 33.675781 L 6.152344 4.148438 C 6.167969 4.058594 6.214844 3.976562 6.28125 3.914062 C 6.351562 3.855469 6.4375 3.824219 6.53125 3.824219 L 17.847656 3.824219 C 21.601562 3.824219 24.195312 4.605469 25.546875 6.144531 C 26.183594 6.867188 26.585938 7.625 26.78125 8.453125 C 26.988281 9.328125 26.992188 10.367188 26.789062 11.640625 L 26.777344 11.730469 L 26.777344 12.546875 L 27.410156 12.90625 C 27.945312 13.1875 28.371094 13.511719 28.695312 13.882812 C 29.238281 14.5 29.589844 15.285156 29.738281 16.21875 C 29.890625 17.175781 29.839844 18.316406 29.589844 19.605469 C 29.300781 21.089844 28.832031 22.382812 28.199219 23.4375 C 27.617188 24.414062 26.878906 25.222656 25.996094 25.847656 C 25.160156 26.441406 24.160156 26.894531 23.03125 27.183594 C 21.941406 27.46875 20.695312 27.613281 19.328125 27.613281 L 18.445312 27.613281 C 17.816406 27.613281 17.207031 27.839844 16.726562 28.242188 C 16.242188 28.660156 15.925781 29.226562 15.828125 29.84375 L 15.761719 30.203125 L 14.648438 37.257812 L 14.597656 37.515625 C 14.582031 37.597656 14.558594 37.636719 14.527344 37.667969 C 14.496094 37.691406 14.453125 37.707031 14.410156 37.707031 Z M 8.972656 37.707031 " fill-opacity="1" fill-rule="nonzero"/><path fill="#179bd7" d="M 28.011719 11.824219 C 27.976562 12.042969 27.9375 12.261719 27.894531 12.488281 C 26.402344 20.140625 21.296875 22.78125 14.777344 22.78125 L 11.457031 22.78125 C 10.660156 22.78125 9.988281 23.359375 9.863281 24.144531 L 8.164062 34.910156 L 7.683594 37.960938 C 7.601562 38.476562 8 38.941406 8.523438 38.941406 L 14.410156 38.941406 C 15.105469 38.941406 15.699219 38.433594 15.808594 37.746094 L 15.867188 37.449219 L 16.976562 30.425781 L 17.046875 30.039062 C 17.15625 29.351562 17.75 28.84375 18.445312 28.84375 L 19.328125 28.84375 C 25.03125 28.84375 29.496094 26.53125 30.804688 19.839844 C 31.347656 17.042969 31.066406 14.707031 29.621094 13.066406 C 29.1875 12.570312 28.644531 12.160156 28.011719 11.824219 Z M 28.011719 11.824219 " fill-opacity="1" fill-rule="nonzero"/><path fill="#222d65" d="M 26.449219 11.203125 C 26.222656 11.136719 25.988281 11.078125 25.746094 11.023438 C 25.503906 10.972656 25.253906 10.925781 25 10.882812 C 24.105469 10.738281 23.125 10.667969 22.074219 10.667969 L 13.203125 10.667969 C 12.984375 10.667969 12.777344 10.71875 12.59375 10.808594 C 12.183594 11.003906 11.878906 11.390625 11.804688 11.863281 L 9.917969 23.796875 L 9.863281 24.144531 C 9.988281 23.359375 10.660156 22.78125 11.457031 22.78125 L 14.777344 22.78125 C 21.296875 22.78125 26.402344 20.136719 27.894531 12.488281 C 27.941406 12.261719 27.976562 12.042969 28.011719 11.824219 C 27.632812 11.625 27.226562 11.457031 26.785156 11.308594 C 26.675781 11.273438 26.5625 11.238281 26.449219 11.203125 Z M 26.449219 11.203125 " fill-opacity="1" fill-rule="nonzero"/><g clip-path="url(#5251de2841)"><path fill="#253b80" d="M 11.804688 11.863281 C 11.878906 11.390625 12.183594 11.003906 12.59375 10.808594 C 12.777344 10.71875 12.984375 10.671875 13.203125 10.671875 L 22.074219 10.671875 C 23.125 10.671875 24.105469 10.738281 25 10.882812 C 25.253906 10.925781 25.503906 10.972656 25.746094 11.023438 C 25.988281 11.078125 26.222656 11.140625 26.449219 11.207031 C 26.5625 11.238281 26.675781 11.273438 26.785156 11.308594 C 27.226562 11.457031 27.636719 11.628906 28.011719 11.824219 C 28.457031 9 28.007812 7.074219 26.476562 5.332031 C 24.789062 3.414062 21.746094 2.589844 17.847656 2.589844 L 6.53125 2.589844 C 5.734375 2.589844 5.054688 3.167969 4.933594 3.957031 L 0.21875 33.785156 C 0.128906 34.375 0.582031 34.910156 1.179688 34.910156 L 8.164062 34.910156 L 9.917969 23.796875 Z M 11.804688 11.863281 " fill-opacity="1" fill-rule="nonzero"/></g></svg>