<svg xmlns="http://www.w3.org/2000/svg" xmlns:xlink="http://www.w3.org/1999/xlink" width="200" zoomAndPan="magnify" viewBox="0 0 150 44.999999" height="60" preserveAspectRatio="xMidYMid meet" version="1.0"><defs><clipPath id="1817d05c11"><path d="M 104 6 L 131.25 6 L 131.25 45 L 104 45 Z M 104 6 " clip-rule="nonzero"/></clipPath><clipPath id="0da3ae0ce9"><path d="M 18.75 6 L 43 6 L 43 34 L 18.75 34 Z M 18.75 6 " clip-rule="nonzero"/></clipPath></defs><path fill="#000000" d="M 83.109375 19.875 C 82.265625 19.21875 80.484375 18.375 77.671875 17.15625 C 75.609375 16.40625 74.296875 15.84375 73.734375 15.5625 C 72.890625 15.1875 72.515625 14.8125 72.515625 14.4375 C 72.515625 13.96875 72.796875 13.59375 73.265625 13.3125 C 73.734375 13.03125 74.296875 12.9375 74.953125 12.9375 C 77.015625 12.9375 78.515625 13.78125 79.453125 15.46875 L 84.796875 11.625 C 83.953125 10.125 82.734375 8.90625 81.046875 7.96875 C 79.265625 7.03125 77.390625 6.5625 75.234375 6.5625 C 72.234375 6.5625 69.796875 7.21875 67.828125 8.53125 C 65.765625 9.9375 64.734375 11.90625 64.734375 14.34375 C 64.734375 16.21875 65.390625 17.8125 66.796875 19.125 C 68.015625 20.25 69.890625 21.28125 72.515625 22.21875 C 74.765625 23.0625 76.078125 23.53125 76.453125 23.71875 C 77.296875 24.1875 77.765625 24.65625 77.765625 25.21875 C 77.765625 25.6875 77.578125 25.96875 77.109375 26.25 C 76.640625 26.53125 75.984375 26.625 75.140625 26.625 C 73.921875 26.625 72.796875 26.25 71.765625 25.59375 C 70.828125 24.9375 70.078125 24.09375 69.421875 23.0625 L 63.984375 27.28125 C 65.015625 29.15625 66.515625 30.5625 68.578125 31.59375 C 70.546875 32.625 72.703125 33.09375 75.140625 33.09375 C 78.234375 33.09375 80.765625 32.34375 82.828125 30.75 C 84.796875 29.25 85.734375 27.375 85.734375 25.03125 C 85.546875 22.875 84.703125 21.1875 83.109375 19.875 Z M 83.109375 19.875 " fill-opacity="1" fill-rule="nonzero"/><path fill="#000000" d="M 96.796875 21.9375 L 96.796875 13.78125 L 103.171875 13.78125 L 100.734375 6.65625 L 97.078125 6.65625 L 97.078125 0 L 89.109375 0 L 89.109375 22.875 C 89.109375 24.65625 89.390625 26.15625 89.953125 27.46875 C 90.046875 27.65625 90.140625 27.9375 90.234375 28.125 C 90.609375 28.875 91.078125 29.625 91.734375 30.1875 C 92.671875 31.125 93.703125 31.875 95.015625 32.34375 C 95.859375 32.625 96.796875 32.8125 97.828125 32.90625 C 98.296875 32.90625 98.765625 33 99.234375 33 L 103.171875 33 L 103.171875 25.78125 L 100.546875 25.78125 C 98.015625 25.78125 96.796875 24.5625 96.796875 21.9375 Z M 96.796875 21.9375 " fill-opacity="1" fill-rule="nonzero"/><g clip-path="url(#1817d05c11)"><path fill="#000000" d="M 123.609375 6.65625 L 117.703125 23.625 L 112.078125 6.65625 L 104.109375 6.65625 L 112.546875 31.5 C 113.109375 33.09375 112.734375 34.96875 111.515625 36.1875 C 111.328125 36.375 111.140625 36.46875 110.953125 36.65625 C 110.203125 37.125 109.171875 37.40625 107.953125 37.40625 C 106.640625 37.40625 105.421875 37.125 104.203125 36.5625 L 104.203125 44.0625 C 105.609375 44.71875 107.390625 45 109.546875 44.90625 C 112.171875 44.90625 114.328125 44.15625 116.015625 42.84375 C 117.984375 41.34375 119.765625 38.71875 121.171875 35.15625 L 131.015625 6.5625 L 123.609375 6.5625 Z M 123.609375 6.65625 " fill-opacity="1" fill-rule="nonzero"/></g><g clip-path="url(#0da3ae0ce9)"><path fill="#000000" d="M 42.140625 6.65625 L 23.203125 6.65625 L 18.984375 13.6875 L 30.421875 13.6875 L 18.984375 33.09375 L 38.203125 33.09375 L 39.984375 26.34375 L 30.609375 26.25 Z M 42.140625 6.65625 " fill-opacity="1" fill-rule="nonzero"/></g><path fill="#000000" d="M 53.390625 25.5 C 52.171875 25.875 51.046875 25.96875 49.734375 25.875 C 49.078125 25.78125 48.515625 25.6875 47.953125 25.5 L 44.109375 31.96875 C 45.421875 32.4375 46.828125 32.8125 48.421875 32.90625 C 50.578125 33.1875 52.546875 33.09375 54.328125 32.625 C 56.203125 32.15625 57.984375 31.3125 59.765625 30 L 56.015625 24.09375 C 55.265625 24.75 54.421875 25.21875 53.390625 25.5 Z M 53.390625 25.5 " fill-opacity="1" fill-rule="nonzero"/><path fill="#000000" d="M 49.359375 6.65625 C 47.859375 6.65625 46.453125 6.84375 45.046875 7.3125 L 41.203125 22.125 L 61.078125 22.125 C 61.078125 22.03125 61.171875 21.9375 61.171875 21.84375 C 61.265625 21.46875 61.359375 21 61.453125 20.4375 C 61.546875 19.6875 61.640625 19.03125 61.640625 18.375 C 61.640625 14.90625 60.515625 12 58.265625 9.84375 C 55.921875 7.6875 53.015625 6.65625 49.359375 6.65625 Z M 53.203125 17.15625 L 44.765625 17.15625 C 44.859375 16.03125 45.328125 15.1875 46.171875 14.4375 C 47.015625 13.78125 47.953125 13.5 49.171875 13.5 C 50.390625 13.5 51.234375 13.78125 51.984375 14.4375 C 52.828125 15.1875 53.203125 16.03125 53.203125 17.15625 Z M 53.203125 17.15625 " fill-opacity="1" fill-rule="nonzero"/></svg>