<svg xmlns="http://www.w3.org/2000/svg" xmlns:xlink="http://www.w3.org/1999/xlink" width="200" zoomAndPan="magnify" viewBox="0 0 150 44.999999" height="60" preserveAspectRatio="xMidYMid meet" version="1.0"><defs><clipPath id="65749b3901"><path d="M 25 0 L 125.398438 0 L 125.398438 45 L 25 45 Z M 25 0 " clip-rule="nonzero"/></clipPath></defs><g clip-path="url(#65749b3901)"><path fill="#000000" d="M 36.613281 44.539062 L 25.390625 44.539062 L 25.390625 37.878906 C 28.265625 42.195312 31.171875 44.074219 34.355469 44.074219 C 37.324219 44.074219 39.796875 42.503906 39.796875 39.882812 C 39.765625 33.441406 25.144531 33.164062 25.144531 23.765625 C 25.144531 18.738281 29.285156 15.378906 35.625 15.378906 L 45.050781 15.378906 L 45.050781 22.039062 C 41.773438 17.414062 39.148438 15.84375 36.023438 15.84375 C 33.273438 15.84375 31.511719 17.167969 31.511719 19.386719 C 31.511719 26.660156 47.371094 25.089844 47.371094 36.125 C 47.371094 41.515625 43.628906 44.539062 36.613281 44.539062 Z M 52.65625 9.460938 L 60.757812 0.0625 C 60.851562 -0.0625 60.941406 -0.03125 60.941406 0.125 L 60.941406 44.507812 L 52.65625 44.507812 Z M 69.691406 26.628906 L 82.984375 44.539062 L 72.660156 44.539062 L 63.789062 32.332031 Z M 80.699219 15.378906 L 71.269531 24.347656 C 72.042969 20.035156 69.507812 16.519531 64.898438 15.378906 Z M 83.386719 36.769531 C 83.386719 25.582031 102.121094 28.847656 102.121094 20.3125 C 102.121094 17.628906 100.207031 15.8125 97.332031 15.8125 C 94.300781 15.8125 91.117188 17.96875 88.335938 22.007812 L 88.335938 15.378906 L 99.03125 15.378906 C 106.171875 15.378906 110.378906 19.109375 110.378906 25.457031 L 110.378906 44.539062 L 102.0625 44.539062 L 102.0625 23.117188 C 99.773438 27.863281 91.953125 28.417969 91.953125 35.597656 C 91.953125 39.265625 93.992188 41.609375 97.207031 41.609375 C 98.753906 41.609375 100.238281 41.023438 101.289062 39.914062 C 99.585938 43.304688 96.710938 45 92.753906 45 C 87.066406 45 83.355469 41.792969 83.386719 36.769531 Z M 123.949219 44.539062 L 123.949219 15.378906 L 115.632812 15.378906 L 115.632812 44.539062 Z M 125.125 5.980469 C 124.816406 3.265625 122.339844 1.324219 119.621094 1.664062 C 119.589844 1.664062 119.558594 1.664062 119.558594 1.664062 C 117.859375 1.820312 116.375 2.867188 115.632812 4.40625 C 115.601562 4.46875 115.632812 4.53125 115.695312 4.5625 C 115.726562 4.5625 115.757812 4.5625 115.789062 4.5625 C 116.589844 4.070312 117.519531 3.792969 118.445312 3.792969 C 121.230469 3.792969 123.453125 6.042969 123.484375 8.785156 C 123.484375 9.277344 123.421875 9.769531 123.269531 10.234375 C 123.238281 10.292969 123.269531 10.355469 123.332031 10.355469 C 123.363281 10.355469 123.394531 10.355469 123.421875 10.324219 C 124.691406 9.246094 125.308594 7.613281 125.125 5.980469 Z M 125.125 5.980469 " fill-opacity="1" fill-rule="nonzero"/></g></svg>