<svg xmlns="http://www.w3.org/2000/svg" xmlns:xlink="http://www.w3.org/1999/xlink" width="200" zoomAndPan="magnify" viewBox="0 0 150 44.999999" height="60" preserveAspectRatio="xMidYMid meet" version="1.0"><defs><clipPath id="7a408f34e5"><path d="M 93 13 L 114 13 L 114 41.660156 L 93 41.660156 Z M 93 13 " clip-rule="nonzero"/></clipPath><clipPath id="cb3ad242c3"><path d="M 0 3.410156 L 28 3.410156 L 28 35 L 0 35 Z M 0 3.410156 " clip-rule="nonzero"/></clipPath><clipPath id="d26701557e"><path d="M 50 13 L 72 13 L 72 41.660156 L 50 41.660156 Z M 50 13 " clip-rule="nonzero"/></clipPath></defs><path fill="#0a0f38" d="M 123.910156 34.027344 C 120 34.027344 118.257812 32.285156 118.257812 28.367188 L 118.257812 17.125 L 122.34375 19.484375 L 122.34375 28.300781 C 122.34375 29.757812 122.753906 30.195312 124.113281 30.195312 L 128.015625 30.195312 L 128.015625 33.976562 Z M 123.910156 34.027344 " fill-opacity="1" fill-rule="nonzero"/><path fill="#0a0f38" d="M 118.257812 13.355469 L 118.257812 9.09375 L 122.34375 6.722656 L 122.34375 13.355469 L 127.410156 13.355469 L 127.410156 17.125 L 114.515625 17.125 L 115.617188 13.355469 Z M 118.257812 13.355469 " fill-opacity="1" fill-rule="nonzero"/><g clip-path="url(#7a408f34e5)"><path fill="#0a0f38" d="M 109.371094 13.355469 L 103.519531 34.039062 L 97.640625 13.355469 L 93.476562 13.355469 L 99.539062 34.039062 L 103.519531 34.039062 L 102.667969 36.984375 C 102.554688 37.355469 102.335938 37.660156 102.023438 37.890625 C 101.707031 38.121094 101.351562 38.238281 100.960938 38.238281 L 93.867188 38.238281 L 93.867188 41.65625 L 101.015625 41.65625 C 101.609375 41.671875 102.1875 41.589844 102.757812 41.417969 C 103.324219 41.246094 103.851562 40.992188 104.339844 40.652344 C 104.828125 40.316406 105.25 39.910156 105.609375 39.4375 C 105.96875 38.964844 106.25 38.445312 106.445312 37.886719 L 113.582031 13.449219 Z M 109.371094 13.355469 " fill-opacity="1" fill-rule="nonzero"/></g><g clip-path="url(#cb3ad242c3)"><path fill="#0a0f38" d="M 15.410156 30.425781 C 9.546875 30.425781 4.804688 25.179688 4.804688 18.953125 C 4.804688 12.726562 9.578125 7.414062 15.410156 7.414062 C 16.929688 7.433594 18.375 7.773438 19.742188 8.4375 C 21.113281 9.097656 22.277344 10.019531 23.238281 11.195312 L 26.855469 9.070312 C 26.175781 8.195312 25.410156 7.410156 24.554688 6.707031 C 23.699219 6.007812 22.773438 5.410156 21.78125 4.921875 C 20.792969 4.429688 19.757812 4.058594 18.683594 3.800781 C 17.605469 3.546875 16.515625 3.414062 15.410156 3.410156 C 14.527344 3.425781 13.652344 3.523438 12.785156 3.695312 C 11.917969 3.867188 11.074219 4.113281 10.25 4.4375 C 9.425781 4.757812 8.636719 5.148438 7.882812 5.609375 C 7.128906 6.074219 6.421875 6.597656 5.757812 7.183594 C 5.097656 7.769531 4.492188 8.410156 3.941406 9.101562 C 3.394531 9.796875 2.910156 10.53125 2.488281 11.3125 C 2.070312 12.089844 1.71875 12.902344 1.445312 13.742188 C 1.167969 14.582031 0.964844 15.441406 0.839844 16.316406 L 4.796875 18.613281 L 0.753906 20.941406 C 0.855469 21.84375 1.035156 22.730469 1.292969 23.601562 C 1.550781 24.472656 1.886719 25.3125 2.296875 26.121094 C 2.707031 26.933594 3.1875 27.699219 3.734375 28.425781 C 4.28125 29.148438 4.890625 29.816406 5.558594 30.433594 C 6.226562 31.046875 6.945312 31.597656 7.710938 32.082031 C 8.480469 32.566406 9.28125 32.976562 10.125 33.316406 C 10.964844 33.65625 11.828125 33.917969 12.71875 34.101562 C 13.605469 34.285156 14.503906 34.390625 15.410156 34.410156 C 16.5625 34.402344 17.699219 34.257812 18.820312 33.976562 C 19.9375 33.695312 21.007812 33.289062 22.03125 32.757812 C 23.054688 32.222656 24 31.578125 24.871094 30.820312 C 25.742188 30.058594 26.511719 29.210938 27.183594 28.269531 L 23.585938 26.144531 C 23.117188 26.792969 22.574219 27.378906 21.96875 27.902344 C 21.359375 28.425781 20.699219 28.871094 19.988281 29.238281 C 19.277344 29.609375 18.53125 29.890625 17.757812 30.085938 C 16.980469 30.28125 16.191406 30.382812 15.390625 30.394531 " fill-opacity="1" fill-rule="nonzero"/></g><path fill="#0a0f38" d="M 90.089844 14.605469 C 89.304688 14.027344 88.441406 13.597656 87.507812 13.316406 C 86.570312 13.035156 85.617188 12.921875 84.640625 12.972656 C 83.210938 12.953125 81.839844 13.230469 80.527344 13.800781 C 79.214844 14.371094 78.078125 15.1875 77.109375 16.242188 L 74.097656 14.542969 L 74.097656 34.027344 L 77.875 34.027344 L 77.875 22.683594 C 77.875 19.070312 79.996094 16.242188 83.792969 16.242188 C 84.253906 16.195312 84.710938 16.214844 85.167969 16.300781 C 85.625 16.386719 86.058594 16.535156 86.46875 16.746094 C 86.882812 16.957031 87.257812 17.222656 87.59375 17.542969 C 87.929688 17.859375 88.214844 18.222656 88.449219 18.625 C 89.113281 20.292969 89.363281 22.019531 89.191406 23.808594 L 89.191406 33.976562 L 93.019531 33.976562 L 93.019531 24.847656 C 92.953125 21.28125 93.082031 17.082031 90.089844 14.605469 Z M 90.089844 14.605469 " fill-opacity="1" fill-rule="nonzero"/><g clip-path="url(#d26701557e)"><path fill="#0a0f38" d="M 65.0625 29.714844 L 67.832031 31.371094 C 66.601562 32.871094 65.039062 33.820312 63.144531 34.21875 C 59.082031 34.902344 54.203125 33.457031 52.167969 29.375 C 51.722656 28.417969 51.394531 27.417969 51.183594 26.382812 C 50.976562 25.34375 50.894531 24.296875 50.9375 23.238281 C 50.976562 22.179688 51.144531 21.144531 51.4375 20.125 C 51.726562 19.109375 52.132812 18.140625 52.65625 17.222656 C 55.074219 13.4375 60.207031 12.175781 64.320312 13.535156 C 65.960938 14.074219 67.351562 14.996094 68.488281 16.296875 L 71.492188 14.554688 L 71.492188 36.132812 C 71.492188 39.914062 69.824219 41.605469 66.050781 41.605469 L 58.023438 41.605469 L 58.023438 38.214844 L 65.804688 38.214844 C 67.25 38.214844 67.789062 37.671875 67.789062 36.21875 L 67.789062 22.648438 C 67.789062 22.230469 67.75 21.816406 67.667969 21.40625 C 67.585938 20.996094 67.464844 20.597656 67.304688 20.210938 C 67.144531 19.824219 66.949219 19.457031 66.71875 19.109375 C 66.484375 18.761719 66.222656 18.4375 65.925781 18.140625 C 65.628906 17.847656 65.308594 17.582031 64.960938 17.351562 C 64.613281 17.117188 64.246094 16.921875 63.859375 16.761719 C 63.476562 16.601562 63.078125 16.480469 62.667969 16.398438 C 62.257812 16.316406 61.84375 16.277344 61.425781 16.277344 C 58.519531 16.277344 54.957031 18.398438 54.957031 23.839844 C 54.957031 28.3125 57.777344 31.109375 61.257812 31.109375 C 62.679688 31.070312 63.949219 30.605469 65.0625 29.714844 Z M 65.0625 29.714844 " fill-opacity="1" fill-rule="nonzero"/></g><path fill="#0a0f38" d="M 40.894531 12.972656 L 38.933594 16.457031 L 36.863281 12.972656 C 33.4375 13.511719 28.605469 16.09375 28.605469 23.597656 C 28.605469 31.097656 33.398438 34.421875 38.933594 34.421875 C 44.46875 34.421875 49.15625 31.171875 49.15625 23.597656 C 49.15625 16.019531 44.320312 13.480469 40.894531 12.972656 Z M 45.136719 23.839844 C 45.03125 28.164062 42.773438 30.90625 38.835938 30.96875 C 34.902344 31.03125 32.695312 28.132812 32.570312 23.808594 C 32.441406 19.484375 34.964844 16.371094 38.859375 16.371094 C 42.75 16.371094 45.296875 19.539062 45.136719 23.808594 Z M 45.136719 23.839844 " fill-opacity="1" fill-rule="nonzero"/><path fill="#0a0f38" d="M 132.871094 21.640625 L 134.992188 25.296875 L 149.160156 25.296875 C 149.304688 23.898438 149.265625 22.507812 149.046875 21.121094 C 148.398438 16.945312 145.109375 13.023438 138.980469 13.023438 C 131.832031 13.023438 128.703125 17.945312 128.703125 23.710938 C 128.703125 29.480469 131.886719 34.410156 138.980469 34.410156 C 142.289062 34.410156 145.101562 33.753906 147.636719 30.085938 L 144.144531 28.070312 C 143.875 28.503906 143.550781 28.898438 143.179688 29.246094 C 142.804688 29.597656 142.390625 29.890625 141.9375 30.132812 C 141.484375 30.371094 141.007812 30.546875 140.507812 30.660156 C 140.007812 30.773438 139.503906 30.820312 138.992188 30.800781 C 136.476562 30.800781 132.703125 29.28125 132.703125 23.710938 C 132.703125 19.039062 135.375 16.402344 138.992188 16.402344 C 139.359375 16.394531 139.722656 16.421875 140.082031 16.480469 C 140.445312 16.542969 140.796875 16.632812 141.140625 16.757812 C 141.488281 16.882812 141.816406 17.039062 142.132812 17.222656 C 142.449219 17.410156 142.746094 17.621094 143.023438 17.859375 C 143.300781 18.101562 143.554688 18.363281 143.785156 18.648438 C 144.015625 18.933594 144.214844 19.238281 144.390625 19.5625 C 144.5625 19.886719 144.707031 20.222656 144.820312 20.570312 C 144.929688 20.921875 145.011719 21.277344 145.058594 21.640625 Z M 132.871094 21.640625 " fill-opacity="1" fill-rule="nonzero"/></svg>