<svg width="1013" height="340" viewBox="0 0 1013 340" fill="none" xmlns="http://www.w3.org/2000/svg">
<path d="M325.98 237.611C299.831 297.865 239.843 340.002 169.991 340.002C167.147 340.002 164.326 339.937 161.526 339.786C71.5546 335.37 0 261.028 0 169.947C0 154.716 2.04626 139.96 5.81569 125.914C9.64974 121.821 15.0346 119.257 21.0226 119.257C32.6325 119.257 42.0884 128.801 42.0884 140.498V147.327C42.0884 147.435 42.0453 147.564 42.0453 147.65V199.373C42.0453 220.765 59.3847 238.171 80.6874 238.171C101.99 238.171 119.329 220.765 119.329 199.373V157.646C119.329 157.495 119.286 157.387 119.286 157.237V140.477C119.286 128.779 128.742 119.236 140.352 119.236C151.962 119.236 161.418 128.779 161.418 140.477V199.352C161.418 220.743 178.736 238.15 200.038 238.15C221.341 238.15 238.68 220.743 238.68 199.352V157.624C238.68 157.474 238.637 157.366 238.637 157.215V140.455C238.637 128.758 248.093 119.214 259.703 119.214C271.313 119.214 280.769 128.758 280.769 140.455V141.834C280.769 141.834 280.769 142.028 280.769 142.135V199.33C280.769 219.02 295.459 235.349 314.392 237.805C316.008 238.02 317.688 238.128 319.368 238.128C321.651 238.128 323.87 237.891 326.067 237.525" fill="#073C8C"/>
<path d="M340 169.991C340 185.393 337.91 200.258 334.098 214.454C334.098 214.454 334.076 214.497 334.076 214.519C334.055 214.519 334.033 214.562 334.012 214.562C330.199 218.332 325.03 220.658 319.3 220.658C307.69 220.658 298.234 211.115 298.234 199.417V187.203C298.234 187.074 298.234 186.987 298.234 186.901V140.542C298.234 119.151 280.916 101.723 259.614 101.723C238.311 101.723 220.972 119.151 220.972 140.542V187.935C220.972 188.043 221.015 188.172 221.015 188.302V199.417C221.015 211.115 211.559 220.658 199.949 220.658C188.339 220.658 178.883 211.115 178.883 199.417V140.542C178.883 119.151 161.566 101.723 140.263 101.723C118.96 101.723 101.621 119.151 101.621 140.542V187.935C101.621 188.043 101.664 188.194 101.664 188.302V199.417C101.664 211.115 92.208 220.658 80.5981 220.658C68.9883 220.658 59.5324 211.115 59.5324 199.417V192.588C59.5324 192.481 59.5755 192.373 59.5755 192.265V140.564C59.5755 119.172 42.2576 101.788 20.955 101.744C18.5641 101.744 16.2378 101.981 13.9546 102.412C40.1037 42.1368 100.091 0 169.966 0C170.892 0 171.775 0 172.701 0C265.322 1.46488 339.978 77.0139 339.978 169.991" fill="#55C6C2"/>
<path d="M965.752 231.423C957.241 231.423 949.549 229.514 942.676 225.695C935.802 221.768 930.401 216.312 926.473 209.329C922.545 202.237 920.582 194.054 920.582 184.78C920.582 175.615 922.6 167.487 926.637 160.395C930.674 153.303 936.184 147.848 943.167 144.029C950.15 140.21 957.951 138.301 966.57 138.301C975.19 138.301 982.991 140.21 989.973 144.029C996.956 147.848 1002.47 153.303 1006.5 160.395C1010.54 167.487 1012.56 175.615 1012.56 184.78C1012.56 193.945 1010.49 202.074 1006.34 209.166C1002.19 216.258 996.52 221.768 989.319 225.695C982.227 229.514 974.371 231.423 965.752 231.423ZM965.752 215.221C970.552 215.221 975.026 214.075 979.172 211.784C983.427 209.493 986.864 206.056 989.483 201.474C992.101 196.891 993.41 191.327 993.41 184.78C993.41 178.234 992.156 172.724 989.646 168.251C987.137 163.668 983.809 160.231 979.663 157.94C975.517 155.649 971.043 154.503 966.243 154.503C961.442 154.503 956.969 155.649 952.823 157.94C948.786 160.231 945.567 163.668 943.167 168.251C940.766 172.724 939.566 178.234 939.566 184.78C939.566 194.491 942.021 202.019 946.931 207.365C951.95 212.603 958.223 215.221 965.752 215.221Z" fill="#073C8C"/>
<path d="M900.324 138.301V232.148H890.996H881.667V138.301H900.324Z" fill="#073C8C"/>
<path d="M884.528 123.111C886.436 125.006 888.798 125.953 891.614 125.953C894.339 125.953 896.655 125.006 898.563 123.111C900.47 121.217 901.424 118.871 901.424 116.074C901.424 113.278 900.47 110.932 898.563 109.038C896.655 107.143 894.339 106.196 891.614 106.196C888.798 106.196 886.436 107.143 884.528 109.038C882.621 110.932 881.667 113.278 881.667 116.074C881.667 118.871 882.621 121.217 884.528 123.111Z" fill="#073C8C"/>
<path d="M852.099 232.148C849.283 232.148 846.921 231.201 845.014 229.307C843.106 227.412 842.152 225.066 842.152 222.27C842.152 219.473 843.106 217.127 845.014 215.233C846.921 213.338 849.283 212.391 852.099 212.391C854.824 212.391 857.141 213.338 859.048 215.233C860.956 217.127 861.91 219.473 861.91 222.27C861.91 225.066 860.956 227.412 859.048 229.307C857.141 231.201 854.824 232.148 852.099 232.148Z" fill="#073C8C"/>
<path d="M730.29 185.031C730.29 175.975 732.145 167.955 735.855 160.973C739.673 153.99 744.801 148.589 751.239 144.77C757.785 140.842 765.041 138.878 773.006 138.878C778.897 138.878 784.68 140.188 790.354 142.806C796.136 145.316 800.719 148.698 804.101 152.953V106.196H822.922V232.001H804.101V216.944C801.046 221.309 796.791 224.909 791.336 227.746C785.989 230.583 779.825 232.001 772.842 232.001C764.986 232.001 757.785 230.037 751.239 226.109C744.801 222.072 739.673 216.508 735.855 209.416C732.145 202.215 730.29 194.087 730.29 185.031ZM804.101 185.358C804.101 179.139 802.792 173.738 800.173 169.156C797.664 164.573 794.336 161.082 790.19 158.681C786.044 156.281 781.571 155.081 776.77 155.081C771.969 155.081 767.496 156.281 763.35 158.681C759.204 160.973 755.821 164.409 753.203 168.992C750.693 173.465 749.439 178.812 749.439 185.031C749.439 191.25 750.693 196.705 753.203 201.397C755.821 206.088 759.204 209.689 763.35 212.198C767.605 214.599 772.078 215.799 776.77 215.799C781.571 215.799 786.044 214.599 790.19 212.198C794.336 209.798 797.664 206.307 800.173 201.724C802.792 197.032 804.101 191.577 804.101 185.358Z" fill="#073C8C"/>
<path d="M672.79 138.301C679.882 138.301 686.21 139.774 691.775 142.72C697.448 145.665 701.867 150.03 705.031 155.812C708.195 161.595 709.777 168.578 709.777 176.761V232.42H691.284V179.543C691.284 171.469 689.265 165.305 685.228 161.05C681.191 156.685 675.681 154.503 668.699 154.503C661.716 154.503 656.151 156.685 652.005 161.05C647.968 165.305 645.95 171.469 645.95 179.543V232.42H627.292V138.301H645.95V150.084C649.005 146.375 652.878 143.483 657.57 141.41C662.37 139.337 667.444 138.301 672.79 138.301Z" fill="#073C8C"/>
<path d="M607.495 182.653C607.495 186.035 607.277 189.09 606.841 191.818H537.94C538.485 199.019 541.158 204.801 545.959 209.166C550.76 213.53 556.652 215.712 563.635 215.712C573.672 215.712 580.764 211.511 584.91 203.11H605.041C602.313 211.402 597.349 218.222 590.147 223.568C583.056 228.805 574.218 231.423 563.635 231.423C555.015 231.423 547.268 229.514 540.395 225.695C533.63 221.768 528.284 216.312 524.356 209.329C520.537 202.237 518.628 194.054 518.628 184.78C518.628 175.506 520.483 167.378 524.192 160.395C528.011 153.303 533.303 147.848 540.067 144.029C546.941 140.21 554.797 138.301 563.635 138.301C572.145 138.301 579.728 140.156 586.383 143.865C593.039 147.575 598.221 152.812 601.931 159.577C605.641 166.232 607.495 173.924 607.495 182.653ZM588.02 176.761C587.911 169.887 585.456 164.377 580.655 160.231C575.854 156.085 569.908 154.012 562.816 154.012C556.379 154.012 550.869 156.085 546.287 160.231C541.704 164.268 538.976 169.778 538.104 176.761H588.02Z" fill="#073C8C"/>
<path d="M500.126 116.074V232.288H481.469V154.385L446.773 232.288H433.844L398.984 154.385V232.288H380.327V116.074H390.392H400.457L440.39 207.739L480.16 116.074H490.143H500.126Z" fill="#073C8C"/>
</svg>
